<svg xmlns="http://www.w3.org/2000/svg" xmlns:xlink="http://www.w3.org/1999/xlink" width="231" height="126" viewBox="0 0 231 126">
  <defs>
    <path id="blank-child-a" d="M1.448,0.32 C0.809,0.32 0.29,0.838 0.291,1.479 C0.291,1.798 0.42,2.088 0.63,2.297 C0.84,2.507 1.129,2.637 1.448,2.637 L11.247,2.636 C11.886,2.636 12.403,2.118 12.403,1.478 C12.403,0.838 11.886,0.32 11.247,0.32 L1.448,0.32 Z"/>
    <path id="blank-child-c" d="M0.19,1.579 L0.19,11.378 C0.19,11.696 0.319,11.987 0.529,12.196 C0.739,12.405 1.028,12.536 1.348,12.536 C1.988,12.536 2.506,12.017 2.505,11.378 L2.505,1.579 C2.505,0.939 1.988,0.422 1.347,0.422 C0.708,0.422 0.19,0.939 0.19,1.579 Z"/>
    <path id="blank-child-e" d="M1.454,0.59 C0.775,1.269 0.775,2.368 1.454,3.046 L13.304,14.895 C13.983,15.573 15.082,15.573 15.76,14.895 C16.439,14.216 16.439,13.117 15.76,12.439 L3.91,0.59 C3.571,0.251 3.126,0.082 2.682,0.082 C2.238,0.082 1.793,0.251 1.454,0.59 Z"/>
    <path id="blank-child-g" d="M13.304,0.589 L1.455,12.44 C0.777,13.118 0.777,14.217 1.456,14.896 C2.134,15.574 3.233,15.574 3.912,14.896 L15.76,3.045 C16.439,2.367 16.439,1.268 15.76,0.589 C15.42,0.25 14.977,0.081 14.532,0.081 C14.087,0.081 13.644,0.25 13.304,0.589 Z"/>
    <path id="blank-child-i" d="M8.167,1.1 L1.24,8.027 C1.026,8.241 0.913,8.519 0.902,8.799 L0.902,8.893 C0.913,9.174 1.026,9.451 1.24,9.665 C1.463,9.888 1.757,10.002 2.05,10.004 L2.069,10.004 C2.362,10.002 2.655,9.888 2.878,9.664 L9.805,2.737 C10.031,2.511 10.145,2.214 10.145,1.918 C10.145,1.622 10.031,1.326 9.805,1.1 C9.579,0.874 9.283,0.76 8.987,0.76 C8.69,0.76 8.393,0.874 8.167,1.1 Z"/>
    <path id="blank-child-k" d="M1.24,1.1 C0.787,1.552 0.787,2.284 1.24,2.738 L8.168,9.664 C8.394,9.89 8.69,10.004 8.987,10.004 C9.284,10.004 9.581,9.89 9.805,9.664 C10.259,9.211 10.258,8.48 9.805,8.026 L2.878,1.1 C2.651,0.874 2.354,0.76 2.058,0.76 C1.762,0.76 1.466,0.874 1.24,1.1 Z"/>
    <path id="blank-child-m" d="M0.592,2.707 L0.593,17.121 C0.593,18.082 1.37,18.858 2.329,18.858 C3.291,18.858 4.067,18.082 4.067,17.121 L4.066,2.707 C4.066,1.748 3.289,0.97 2.329,0.97 C1.369,0.97 0.592,1.748 0.592,2.707 Z"/>
    <path id="blank-child-o" d="M2.123,0.177 C1.162,0.177 0.385,0.954 0.385,1.914 C0.385,2.875 1.163,3.651 2.123,3.651 L16.537,3.65 C17.497,3.65 18.274,2.874 18.274,1.913 C18.274,0.953 17.497,0.177 16.537,0.177 L2.123,0.177 Z"/>
    <path id="blank-child-q" d="M0.683,3.958 C0.683,6.003 2.341,7.661 4.388,7.661 C6.434,7.661 8.092,6.003 8.092,3.957 C8.092,1.91 6.434,0.252 4.387,0.252 C2.341,0.252 0.683,1.91 0.683,3.958 Z"/>
    <path id="blank-child-s" d="M0.419,3.723 C0.419,5.469 1.835,6.884 3.582,6.884 C5.328,6.884 6.742,5.468 6.742,3.722 C6.742,1.976 5.328,0.561 3.581,0.561 C1.835,0.561 0.419,1.976 0.419,3.723 Z"/>
  </defs>
  <g fill="none" fill-rule="evenodd">
    <g transform="translate(0 .003)">
      <path fill="#E3F1F8" d="M199.9929,124.6555 C204.1009,114.2845 206.3599,102.9795 206.3589,91.1465 C206.3559,40.8835 165.6069,0.1375 115.3419,0.1405 C65.0779,0.1435 24.3329,40.8935 24.3359,91.1575 C24.3369,102.9905 26.5969,114.2955 30.7059,124.6655 L199.9929,124.6555 Z"/>
      <path fill="#E0E0E0" d="M123.9343,94.8928 L123.9343,88.5948 C137.2443,85.0218 147.0573,72.9058 147.0563,58.4668 L147.0563,55.3158 L147.0553,46.3568 C147.0553,37.1738 143.3323,28.8618 137.3143,22.8438 C136.5623,22.0918 135.7743,21.3748 134.9533,20.6988 C133.3103,19.3428 131.5363,18.1418 129.6513,17.1188 C124.9393,14.5588 119.5393,13.1058 113.8003,13.1058 C95.4353,13.1068 80.5483,27.9958 80.5493,46.3608 L80.5503,56.1238 L80.5503,58.4708 C80.5513,72.9148 90.3733,85.0348 103.6933,88.6008 L103.6933,95.2688 C94.0773,97.8908 76.5053,102.0438 76.5063,123.5458 L150.6873,123.5408 C150.6863,99.8898 131.9163,97.0358 123.9343,94.8928"/>
      <path fill="#696969" d="M113.8005,14.1057 C96.0165,14.1067 81.5485,28.5767 81.5495,46.3607 L81.5505,58.4707 C81.5505,72.1107 90.7625,84.1037 103.9515,87.6347 C104.3885,87.7517 104.6935,88.1477 104.6935,88.6007 L104.6935,95.2687 C104.6935,95.7197 104.3915,96.1147 103.9565,96.2337 L103.1455,96.4537 C93.7175,99.0077 78.0425,103.2547 77.5195,122.5457 L149.6755,122.5417 C149.1885,102.2547 133.8725,98.4217 125.5825,96.3467 C124.8975,96.1747 124.2575,96.0147 123.6755,95.8587 C123.2385,95.7417 122.9345,95.3447 122.9345,94.8927 L122.9345,88.5947 C122.9345,88.1427 123.2385,87.7467 123.6755,87.6287 C136.8535,84.0907 146.0565,72.0997 146.0565,58.4667 L146.0555,46.3567 C146.0545,37.7427 142.6995,29.6427 136.6075,23.5507 C135.8755,22.8197 135.1055,22.1197 134.3175,21.4697 C132.7175,20.1497 130.9875,18.9817 129.1745,17.9977 C124.4875,15.4517 119.1715,14.1057 113.8005,14.1057 Z M76.5065,124.5457 C75.9545,124.5457 75.5065,124.0987 75.5065,123.5457 C75.5055,101.8697 93.1455,97.0897 102.6225,94.5237 L102.6935,94.5037 L102.6935,89.3587 C89.0285,85.3497 79.5505,72.7577 79.5505,58.4707 L79.5495,46.3607 C79.5485,27.4737 94.9135,12.1067 113.8005,12.1057 C119.5035,12.1057 125.1495,13.5357 130.1285,16.2397 C132.0535,17.2857 133.8915,18.5257 135.5895,19.9267 C136.4255,20.6167 137.2445,21.3607 138.0215,22.1367 C144.4915,28.6067 148.0545,37.2087 148.0555,46.3567 L148.0565,58.4667 C148.0565,72.7467 138.5885,85.3367 124.9345,89.3527 L124.9345,94.1207 C125.2955,94.2127 125.6745,94.3077 126.0685,94.4067 C135.0215,96.6487 151.6865,100.8207 151.6875,123.5417 C151.6875,124.0927 151.2395,124.5417 150.6875,124.5417 L76.5065,124.5457 Z"/>
      <path fill="#CAF2E9" d="M154.0559,14.4338 L146.3499,14.4338 L146.3489,6.7278 C146.3489,4.0728 144.1769,1.8998 141.5209,1.8998 C138.8659,1.9008 136.6929,4.0738 136.6929,6.7288 L136.6929,14.4348 L128.9869,14.4348 C126.3319,14.4358 124.1589,16.6088 124.1599,19.2638 C124.1599,21.9188 126.3319,24.0918 128.9879,24.0918 L136.6939,24.0908 L136.6949,31.7968 C136.6949,34.4528 138.8679,36.6248 141.5229,36.6248 C144.1789,36.6248 146.3509,34.4528 146.3509,31.7968 L146.3499,24.0908 L154.0559,24.0898 C156.7119,24.0898 158.8849,21.9168 158.8849,19.2618 C158.8849,16.6068 156.7109,14.4338 154.0559,14.4338"/>
      <path fill="#696969" d="M136.6941 23.091C136.9591 23.091 137.2141 23.196 137.4011 23.384 137.5891 23.571 137.6941 23.825 137.6941 24.091L137.6941 31.797C137.6941 33.907 139.4121 35.625 141.5231 35.625 143.6331 35.625 145.3511 33.907 145.3511 31.797L145.3501 24.091C145.3501 23.539 145.7981 23.091 146.3501 23.091L154.0561 23.09C156.1671 23.09 157.8841 21.372 157.8841 19.262 157.8841 17.152 156.1671 15.434 154.0561 15.434L146.3501 15.434C145.7981 15.434 145.3501 14.987 145.3501 14.434L145.3491 6.728C145.3491 4.617 143.6321 2.9 141.5211 2.9 139.4101 2.901 137.6931 4.618 137.6931 6.729L137.6931 14.435C137.6931 14.987 137.2451 15.435 136.6931 15.435L128.9871 15.435C126.8761 15.436 125.1591 17.154 125.1591 19.264 125.1591 21.374 126.8771 23.092 128.9871 23.092L136.6941 23.091zM141.5231 37.625C138.3091 37.625 135.6941 35.011 135.6941 31.797L135.6941 25.091 128.9871 25.092C125.7741 25.092 123.1591 22.478 123.1591 19.264 123.1591 16.051 125.7731 13.436 128.9861 13.435L135.6931 13.435 135.6931 6.729C135.6931 3.516 138.3061.901 141.5201.9 144.7351.9 147.3491 3.514 147.3491 6.728L147.3501 13.434 154.0561 13.434C157.2701 13.434 159.8841 16.048 159.8841 19.262 159.8841 22.476 157.2701 25.09 154.0561 25.09L147.3501 25.091 147.3511 31.797C147.3511 35.011 144.7361 37.625 141.5231 37.625zM213.1843 125.0861L16.8933 125.0981C16.1773 125.0981 15.5963 124.5171 15.5963 123.8011 15.5963 123.0851 16.1773 122.5041 16.8933 122.5041L213.1843 122.4921C213.9003 122.4921 214.4813 123.0731 214.4813 123.7891 214.4813 124.5051 213.9003 125.0861 213.1843 125.0861M229.0686 125.0851L220.6636 125.0861C220.0016 125.0861 219.4636 124.5051 219.4636 123.7891 219.4636 123.0731 220.0006 122.4921 220.6636 122.4921L229.0686 122.4911C229.7316 122.4911 230.2686 123.0721 230.2686 123.7881 230.2686 124.5041 229.7316 125.0851 229.0686 125.0851M9.3293 125.0988L2.3363 125.0988C1.2843 125.0988.4303 124.5178.4303 123.8018.4303 123.0858 1.2843 122.5048 2.3363 122.5048L9.3293 122.5038C10.3813 122.5038 11.2353 123.0848 11.2353 123.8008 11.2363 124.5178 10.3813 125.0988 9.3293 125.0988"/>
    </g>
    <g transform="translate(175 102.003)">
      <mask id="blank-child-b" fill="#fff">
        <use xlink:href="#blank-child-a"/>
      </mask>
      <polygon fill="#F1C40F" points="-5.499 8.427 18.195 8.426 18.194 -5.47 -5.5 -5.469" mask="url(#blank-child-b)"/>
    </g>
    <g transform="translate(180 97.003)">
      <mask id="blank-child-d" fill="#fff">
        <use xlink:href="#blank-child-c"/>
      </mask>
      <polygon fill="#F1C40F" points="-5.6 18.326 8.296 18.325 8.295 -5.369 -5.601 -5.368" mask="url(#blank-child-d)"/>
    </g>
    <g transform="translate(172 43.003)">
      <mask id="blank-child-f" fill="#fff">
        <use xlink:href="#blank-child-e"/>
      </mask>
      <polygon fill="#F1C40F" points="-4.843 21.195 22.061 21.194 22.058 -5.71 -4.846 -5.708" mask="url(#blank-child-f)"/>
    </g>
    <g transform="translate(172 43.003)">
      <mask id="blank-child-h" fill="#fff">
        <use xlink:href="#blank-child-g"/>
      </mask>
      <polygon fill="#F1C40F" points="-4.843 21.195 22.06 21.194 22.059 -5.71 -4.845 -5.708" mask="url(#blank-child-h)"/>
    </g>
    <g transform="translate(24 58.003)">
      <mask id="blank-child-j" fill="#fff">
        <use xlink:href="#blank-child-i"/>
      </mask>
      <polygon fill="#F1C40F" points="-4.889 15.795 15.936 15.793 15.934 -5.031 -4.89 -5.029" mask="url(#blank-child-j)"/>
    </g>
    <g transform="translate(24 58.003)">
      <mask id="blank-child-l" fill="#fff">
        <use xlink:href="#blank-child-k"/>
      </mask>
      <polygon fill="#F1C40F" points="-4.888 15.795 15.937 15.793 15.935 -5.031 -4.889 -5.029" mask="url(#blank-child-l)"/>
    </g>
    <g transform="translate(48 87.003)">
      <mask id="blank-child-n" fill="#fff">
        <use xlink:href="#blank-child-m"/>
      </mask>
      <polygon fill="#F1C40F" points="-5.197 24.65 9.858 24.649 9.856 -4.821 -5.198 -4.82" mask="url(#blank-child-n)"/>
    </g>
    <g transform="translate(41 95.003)">
      <mask id="blank-child-p" fill="#fff">
        <use xlink:href="#blank-child-o"/>
      </mask>
      <polygon fill="#F1C40F" points="-5.404 9.443 24.065 9.441 24.064 -5.614 -5.405 -5.612" mask="url(#blank-child-p)"/>
    </g>
    <g transform="translate(200 73.003)">
      <mask id="blank-child-r" fill="#fff">
        <use xlink:href="#blank-child-q"/>
      </mask>
      <polygon fill="#F1C40F" points="-5.107 13.452 13.883 13.451 13.882 -5.539 -5.108 -5.538" mask="url(#blank-child-r)"/>
    </g>
    <g transform="translate(54 39.003)">
      <mask id="blank-child-t" fill="#fff">
        <use xlink:href="#blank-child-s"/>
      </mask>
      <polygon fill="#F1C40F" points="-5.371 12.675 12.534 12.673 12.533 -5.23 -5.372 -5.229" mask="url(#blank-child-t)"/>
    </g>
  </g>
</svg>
