<?xml version="1.0" encoding="UTF-8"?>
<svg width="202px" height="125px" viewBox="0 0 202 125" version="1.1" xmlns="http://www.w3.org/2000/svg" xmlns:xlink="http://www.w3.org/1999/xlink">
    <g id="Final-Q4-2018" stroke="none" stroke-width="1" fill="none" fill-rule="evenodd">
        <g id="Onboarding-/-New-child-account-/-Create-Account-grade" transform="translate(-87.000000, -195.000000)">
            <g id="children-three" transform="translate(88.000000, 196.000000)">
                <path d="M176.72807,123.684211 C190.054236,89.9668955 179.297745,51.5010549 150.414948,29.5869483 C121.532151,7.67284167 81.5906562,7.67284167 52.7078592,29.5869483 C23.8250622,51.5010549 13.068571,89.9668955 26.3947368,123.684211 L176.72807,123.684211 Z" id="Path" fill="#E3F1F8"></path>
                <path d="M78.2807018,122.868421 C78.2807018,107.894737 54.0087719,102.807018 54.0087719,102.807018 L44.5175439,102.807018 C44.5175439,102.807018 18.877193,107.894737 18.877193,122.868421 L78.2807018,122.868421 Z" id="Path" stroke="#696969" stroke-width="2" fill="#9BC7EE" stroke-linecap="round" stroke-linejoin="round"></path>
                <g id="_Group_" transform="translate(66.666667, 67.543860)" fill="#FCDED2" stroke="#696969" stroke-width="2">
                    <circle id="_Path_" cx="5.1754386" cy="5.28070175" r="4.55263158"></circle>
                </g>
                <g id="_Group_2" transform="translate(20.175439, 67.543860)" fill="#DCA378" stroke="#696969" stroke-width="2">
                    <circle id="_Path_2" cx="5.14035088" cy="5.28070175" r="4.55263158"></circle>
                </g>
                <rect id="Rectangle" stroke="#696969" stroke-width="2" fill="#DCA378" x="41.7807018" y="87.4473684" width="13.9035088" height="20.4473684" rx="6.95175439"></rect>
                <path d="M48.7280702,42.6140351 C61.3240382,42.6140351 71.5350877,52.8250847 71.5350877,65.4210526 L71.5350877,78.2017544 C71.5350966,90.0365395 61.9488113,99.6346016 50.1140351,99.6491228 L47.3684211,99.6491228 C41.6741483,99.6584386 36.2099078,97.4029249 32.180154,93.3797529 C28.1504002,89.356581 25.8859573,83.8960347 25.8859649,78.2017544 L25.8859649,65.4561404 C25.8766332,59.3951814 28.2802084,53.5797791 32.5659587,49.2940288 C36.8517089,45.0082786 42.6671113,42.6047033 48.7280702,42.6140351 Z" id="Path" fill="#DCA378"></path>
                <path d="M36.1052632,71.2719298 C36.1052632,71.2719298 39.9385965,67.7631579 43.4824561,71.2719298 M53.6929825,71.2719298 C53.6929825,71.2719298 57.5263158,67.7631579 61.0701754,71.2719298" id="Shape" stroke="#696969" stroke-width="2" stroke-linecap="round" stroke-linejoin="round"></path>
                <circle id="Oval" fill="#696969" cx="57.3859649" cy="75.5350877" r="1.98245614"></circle>
                <circle id="Oval" fill="#696969" cx="39.7982456" cy="75.5350877" r="1.98245614"></circle>
                <path d="M40.9298246,84.3245614 C40.8350963,87.1238585 42.2744467,89.7520256 44.6841518,91.1797366 C47.093857,92.6074476 50.0903536,92.6074476 52.5000587,91.1797366 C54.9097638,89.7520256 56.3491143,87.1238585 56.254386,84.3245614 L40.9298246,84.3245614 Z" id="Path" stroke="#696969" stroke-width="2" fill="#FFFFFF" stroke-linecap="round" stroke-linejoin="round"></path>
                <path d="M48.7280702,42.6140351 C36.1321022,42.6140351 25.9210526,52.8250847 25.9210526,65.4210526 L25.9210526,76.5877193 C27.2807018,76.2017544 29.2631579,75.0701754 29.2631579,71.7982456 L29.2631579,64.122807 C29.2631579,64.122807 29.6491228,57.9824561 40.4035088,55.2894737 C51.1578947,52.5964912 68.8157895,56.0526316 68.8157895,63.7368421 L68.8157895,71.4122807 C68.8157895,71.4122807 68.4824561,75.7982456 71.6052632,76.0350877 L71.6052632,65.4561404 C71.6146258,59.3890869 69.2062389,53.5683418 64.912888,49.2815758 C60.619537,44.9948097 54.7951021,42.59536 48.7280702,42.6140351 Z" id="Path" fill="#9D8E8A"></path>
                <path d="M48.7280702,42.6140351 C61.3240382,42.6140351 71.5350877,52.8250847 71.5350877,65.4210526 L71.5350877,78.2017544 C71.5350966,90.0365395 61.9488113,99.6346016 50.1140351,99.6491228 L47.3684211,99.6491228 C41.6741483,99.6584386 36.2099078,97.4029249 32.180154,93.3797529 C28.1504002,89.356581 25.8859573,83.8960347 25.8859649,78.2017544 L25.8859649,65.4561404 C25.8766332,59.3951814 28.2802084,53.5797791 32.5659587,49.2940288 C36.8517089,45.0082786 42.6671113,42.6047033 48.7280702,42.6140351 Z" id="Path" stroke="#696969" stroke-width="2"></path>
                <path d="M173.885965,122.868421 C176.657895,107.078947 153.903509,105.105263 153.903509,105.105263 L146.087719,105.105263 C146.087719,105.105263 123.342105,107.052632 126.114035,122.868421 L173.885965,122.868421 Z" id="Path" stroke="#696969" stroke-width="2" fill="#D5A1FF" stroke-linecap="round" stroke-linejoin="round"></path>
                <path d="M150,120.096491 C156.587719,120.096491 161.929825,115 161.929825,108.692982 C161.928119,108.054912 161.872365,107.418132 161.763158,106.789474 C159.200801,105.927941 156.554499,105.339874 153.868421,105.035088 L146.052632,105.035088 C143.381362,105.342783 140.749904,105.930818 138.201754,106.789474 C138.088218,107.41756 138.03243,108.054723 138.035088,108.692982 C138.070175,115 143.412281,120.096491 150,120.096491 Z" id="Path" stroke="#696969" stroke-width="2" fill="#FCDED2"></path>
                <path d="M143.192982,110.149123 L143.192982,96.2280702 C143.192981,94.4002779 143.919668,92.6474751 145.212935,91.3558537 C146.506202,90.0642323 148.259928,89.3397769 150.087719,89.3421053 C151.921578,89.3304244 153.684339,90.050748 154.985209,91.3433851 C156.28608,92.6360223 157.017581,94.3941741 157.017544,96.2280702 L157.017544,110.149123" id="Path" stroke="#696969" stroke-width="2" fill="#FCDED2" stroke-linecap="round" stroke-linejoin="round"></path>
                <path d="M176.675439,101.991228 L176.315789,101.991228 L176.315789,62.9736842 C176.310948,49.3139094 165.238722,38.2416834 151.578947,38.2368421 L148.324561,38.2368421 C134.664787,38.2416834 123.592561,49.3139094 123.587719,62.9736842 L123.587719,82.9649123 C123.587719,89.0642675 128.532224,94.0087719 134.631579,94.0087719 L154.947368,94.0087719 L154.947368,113.912281 C154.947364,116.675127 157.184526,118.916214 159.947368,118.921053 L159.947368,113.921053 L176.614035,113.921053 C179.342969,113.921057 181.556565,111.711386 181.561404,108.982456 L181.561404,106.929825 C181.556815,104.224687 179.380372,102.024799 176.675439,101.991228 Z M159.982456,107.631579 L159.982456,118.921053 L159.982456,107.631579 Z" id="Shape" stroke="#696969" stroke-width="2" fill="#FDBB65" fill-rule="nonzero" stroke-linecap="round" stroke-linejoin="round"></path>
                <g id="_Group_3" transform="translate(168.421053, 70.175439)" fill="#FCDED2" stroke="#696969" stroke-width="2">
                    <circle id="_Path_3" cx="4.57894737" cy="4.66666667" r="4.50877193"></circle>
                </g>
                <g id="_Group_4" transform="translate(121.929825, 70.175439)" fill="#FCDED2" stroke="#696969" stroke-width="2">
                    <circle id="_Path_4" cx="4.93859649" cy="4.66666667" r="4.50877193"></circle>
                </g>
                <path d="M150.078947,44.8947368 C156.086582,44.8924088 161.848827,47.2779011 166.096867,51.5259404 C170.344906,55.7739796 172.730398,61.5362254 172.72807,67.5438596 L172.72807,80.1754386 C172.72807,85.8147787 170.487851,91.2231461 166.500235,95.2107617 C162.51262,99.1983774 157.104252,101.438596 151.464912,101.438596 L148.701754,101.438596 C136.958437,101.438596 127.438596,91.9187564 127.438596,80.1754386 L127.438596,67.5438596 C127.438596,61.5392653 129.823912,55.7806034 134.069802,51.534714 C138.315691,47.2888246 144.074353,44.9035088 150.078947,44.9035088 L150.078947,44.8947368 Z" id="Path" fill="#FCDED2"></path>
                <path d="M137.570175,73.3070175 C137.570175,73.3070175 141.368421,69.7982456 144.885965,73.3070175 M155.008772,73.3070175 C155.008772,73.3070175 158.807018,69.7982456 162.324561,73.3070175" id="Shape" stroke="#696969" stroke-width="2" stroke-linecap="round" stroke-linejoin="round"></path>
                <circle id="Oval" fill="#696969" cx="158.666667" cy="77.5263158" r="1.96491228"></circle>
                <circle id="Oval" fill="#696969" cx="141.22807" cy="77.5263158" r="1.96491228"></circle>
                <path d="M142.350877,86.245614 C142.350877,90.4410403 145.751942,93.8421053 149.947368,93.8421053 C154.142795,93.8421053 157.54386,90.4410403 157.54386,86.245614 L142.350877,86.245614 Z" id="Path" stroke="#696969" stroke-width="2" fill="#FFFFFF" stroke-linecap="round" stroke-linejoin="round"></path>
                <path d="M150.078947,44.8947368 C156.086582,44.8924088 161.848827,47.2779011 166.096867,51.5259404 C170.344906,55.7739796 172.730398,61.5362254 172.72807,67.5438596 L172.72807,80.1754386 C172.72807,85.8147787 170.487851,91.2231461 166.500235,95.2107617 C162.51262,99.1983774 157.104252,101.438596 151.464912,101.438596 L148.701754,101.438596 C136.958437,101.438596 127.438596,91.9187564 127.438596,80.1754386 L127.438596,67.5438596 C127.438596,61.5392653 129.823912,55.7806034 134.069802,51.534714 C138.315691,47.2888246 144.074353,44.9035088 150.078947,44.9035088 L150.078947,44.8947368 Z" id="Path" stroke="#696969" stroke-width="2"></path>
                <path d="M129.45614,56.2719298 C129.089399,59.9425849 126.408201,62.9633542 122.807018,63.7631579 C117.254386,65.9824561 120.026316,69.5964912 122.807018,69.5964912 C125.587719,69.5964912 144.166667,70.7017544 150,56.8245614 C150,56.8245614 150.824561,64.3157895 172.745614,68.7631579 L174.692982,68.2017544 C174.692982,68.2017544 175.798246,49.6140351 165.535088,46.0087719 C155.27193,42.4035088 133.894737,39.3508772 129.45614,56.2719298 Z" id="Path" fill="#FDBB65"></path>
                <path d="M129.45614,56.2719298 C129.089399,59.9425849 126.408201,62.9633542 122.807018,63.7631579 C117.254386,65.9824561 120.026316,69.5964912 122.807018,69.5964912 C125.587719,69.5964912 144.166667,70.7017544 150,56.8245614 C150,56.8245614 150.824561,64.3157895 172.745614,68.7631579 M10.3684211,122.868421 L184.692982,122.868421 M191.605263,122.868421 L199.666667,122.868421 M0,122.868421 L4.22807018,122.868421" id="Shape" stroke="#696969" stroke-width="2" stroke-linecap="round" stroke-linejoin="round"></path>
                <path d="M65.3245614,122.868421 L65.3245614,117.877193 C64.8947368,101.745614 94.0087719,96.2807018 94.0087719,96.2807018 L104.622807,96.2807018 C104.622807,96.2807018 132.087719,100.982456 131.815789,117.877193 L131.815789,122.868421 L65.3245614,122.868421 Z" id="Path" stroke="#696969" stroke-width="2" fill="#FFFFFF" stroke-linecap="round" stroke-linejoin="round"></path>
                <path d="M64.5087719,56.4385965 L64.5087719,36.4561404 C64.5087719,16.3245614 80.0438596,0 99.2192982,0 L101.938596,6.9122807 C119.219298,6.9122807 133.22807,21.622807 133.22807,39.7719298 L133.22807,56.0526316 L64.5087719,56.4385965 Z" id="Path" fill="#F2C29B"></path>
                <path d="M101.508772,5.80701754 L99.2192982,0 C84.2719298,0 71.5350877,9.92105263 66.6666667,23.8333333 C76.3157895,7.28947368 93.5087719,5.61403509 101.508772,5.80701754 Z" id="Path" fill="#FDD2B0"></path>
                <path d="M64.5087719,56.4385965 L64.5087719,36.4561404 C64.5087719,16.3245614 80.0438596,0 99.2192982,0 L101.938596,6.9122807 C119.219298,6.9122807 133.22807,21.622807 133.22807,39.7719298 L133.22807,56.0526316 L64.5087719,56.4385965 Z" id="Path" stroke="#696969" stroke-width="2" stroke-linecap="round" stroke-linejoin="round"></path>
                <g id="_Group_5" transform="translate(123.684211, 50.000000)" fill="#FCDED2" stroke="#696969" stroke-width="2">
                    <circle id="_Path_5" cx="6.47368421" cy="7" r="6.15789474"></circle>
                </g>
                <g id="_Group_6" transform="translate(60.526316, 50.000000)" fill="#FCDED2" stroke="#696969" stroke-width="2">
                    <circle id="_Path_6" cx="6.65789474" cy="7" r="6.15789474"></circle>
                </g>
                <rect id="Rectangle" stroke="#696969" stroke-width="2" fill="#AA7559" x="89.4736842" y="76.7894737" width="18.8157895" height="26.1140351" rx="9.40789474"></rect>
                <path d="M121.675439,34.7368421 C119.068677,34.7349272 116.470138,35.0292124 113.929825,35.6140351 C108.98814,36.7105988 103.938992,37.2490569 98.877193,37.2192982 C93.8183139,37.248622 88.7721202,36.7101652 83.8333333,35.6140351 C81.2930197,35.0292124 78.6944811,34.7349272 76.0877193,34.7368421 C73.9342227,34.7368408 71.8690557,35.592914 70.3471265,37.1164885 C68.8251973,38.640063 67.9713561,40.7061538 67.9736842,42.8596491 L67.9736842,62.2105263 C67.9736842,70.4066464 71.2295803,78.2670748 77.0251124,84.0626069 C82.8206445,89.858139 90.6810729,93.1140351 98.877193,93.1140351 C107.08091,93.1256782 114.95261,89.8749228 120.757632,84.0781283 C126.562654,78.2813337 129.82457,70.4142513 129.824561,62.2105263 L129.824561,42.8596491 C129.826916,40.7000603 128.968262,38.6286298 127.438734,37.1040406 C125.909205,35.5794515 123.835009,34.7275021 121.675439,34.7368421 Z" id="Path" stroke="#696969" stroke-width="2" fill="#FCDED2"></path>
                <path d="M81.7982456,54.9035088 C81.7982456,54.9035088 86.9824561,50.1052632 91.7807018,54.9035088 M105.605263,54.9035088 C105.605263,54.9035088 110.780702,50.1052632 115.587719,54.9035088" id="Shape" stroke="#696969" stroke-width="2" stroke-linecap="round" stroke-linejoin="round"></path>
                <circle id="Oval" fill="#696969" cx="110.596491" cy="60.6666667" r="2.68421053"></circle>
                <circle id="Oval" fill="#696969" cx="86.7894737" cy="60.6666667" r="2.68421053"></circle>
                <path d="M88.3245614,72.5701754 C88.2147364,76.3447843 90.1657386,79.8806319 93.417569,81.800354 C96.6693994,83.7200761 100.707794,83.7200761 103.959624,81.800354 C107.211454,79.8806319 109.162457,76.3447843 109.052632,72.5701754 L88.3245614,72.5701754 Z" id="Path" stroke="#696969" stroke-width="2" fill="#FFFFFF" stroke-linecap="round" stroke-linejoin="round"></path>
                <path d="M86.0263158,88.3070175 L110.587719,88.3070175 C115.916783,88.3070175 120.236842,92.627077 120.236842,97.9561404 L120.236842,122.894737 L76.4122807,122.894737 L76.4122807,97.9298246 C76.4267143,92.6247059 80.7212125,88.3262893 86.0263158,88.3070175 Z" id="Path" stroke="#696969" stroke-width="2" fill="#999999" stroke-linecap="round" stroke-linejoin="round"></path>
                <path d="M126.140351,122.868421 C125.226845,118.179404 121.119277,114.794842 116.342105,114.794842 C111.564933,114.794842 107.457366,118.179404 106.54386,122.868421 L126.140351,122.868421 Z" id="Path" stroke="#696969" stroke-width="2" fill="#FCDED2"></path>
            </g>
        </g>
    </g>
</svg>
