<svg width="240" height="231" viewBox="0 0 240 231" fill="none" xmlns="http://www.w3.org/2000/svg">
<path d="M83.9001 142.62C83.9001 148.83 78.8701 153.86 72.6601 153.86C66.4501 153.86 61.4201 148.83 61.4201 142.62L55.9301 44.4C55.8001 41.98 57.7201 39.95 60.1401 39.95H93.1201C94.8301 39.95 96.3701 40.98 97.0201 42.57L100.15 50.21C100.8 51.79 102.34 52.83 104.05 52.83H172.16C174.49 52.83 176.37 54.72 176.37 57.04V64.42H90.2201C87.9401 64.42 86.0701 66.23 86.0101 68.51L83.9001 142.62Z" fill="#F9F9F9" stroke="#999999" stroke-width="1.9901" stroke-miterlimit="10"/>
<path d="M126.92 194.7C173.544 194.7 211.34 190.55 211.34 185.43C211.34 180.31 173.544 176.16 126.92 176.16C80.2961 176.16 42.5 180.31 42.5 185.43C42.5 190.55 80.2961 194.7 126.92 194.7Z" fill="#EEEEEE"/>
<path d="M29.3603 138.9C28.6603 138.9 28.0903 138.33 28.0903 137.63V125.36C28.0903 124.66 28.6603 124.09 29.3603 124.09C30.0603 124.09 30.6303 124.66 30.6303 125.36V137.63C30.6303 138.33 30.0603 138.9 29.3603 138.9Z" fill="#E0E0E0"/>
<path d="M35.4902 132.76H23.2202C22.5202 132.76 21.9502 132.19 21.9502 131.49C21.9502 130.79 22.5202 130.22 23.2202 130.22H35.4902C36.1902 130.22 36.7602 130.79 36.7602 131.49C36.7602 132.19 36.1902 132.76 35.4902 132.76Z" fill="#E0E0E0"/>
<path d="M205.3 41.97C204.6 41.97 204.03 41.4 204.03 40.7V28.43C204.03 27.73 204.6 27.16 205.3 27.16C206 27.16 206.57 27.73 206.57 28.43V40.7C206.58 41.4 206.01 41.97 205.3 41.97Z" fill="#E0E0E0"/>
<path d="M211.44 35.84H199.17C198.47 35.84 197.9 35.27 197.9 34.57C197.9 33.87 198.47 33.3 199.17 33.3H211.44C212.14 33.3 212.71 33.87 212.71 34.57C212.71 35.27 212.14 35.84 211.44 35.84Z" fill="#E0E0E0"/>
<path d="M71.5 14.81C70.8 14.81 70.23 14.24 70.23 13.54V1.27C70.23 0.57 70.8 0 71.5 0C72.2 0 72.77 0.57 72.77 1.27V13.54C72.77 14.24 72.2 14.81 71.5 14.81Z" fill="#E0E0E0"/>
<path d="M77.6301 8.68H65.3701C64.6701 8.68 64.1001 8.11 64.1001 7.41C64.1001 6.71 64.6701 6.14 65.3701 6.14H77.6401C78.3401 6.14 78.9101 6.71 78.9101 7.41C78.9101 8.11 78.3401 8.68 77.6301 8.68Z" fill="#E0E0E0"/>
<path d="M4.53 72.23C7.03185 72.23 9.06 70.2018 9.06 67.7C9.06 65.1981 7.03185 63.17 4.53 63.17C2.02815 63.17 0 65.1981 0 67.7C0 70.2018 2.02815 72.23 4.53 72.23Z" fill="#E0E0E0"/>
<path d="M125.34 16.19C127.842 16.19 129.87 14.1619 129.87 11.66C129.87 9.15815 127.842 7.13 125.34 7.13C122.838 7.13 120.81 9.15815 120.81 11.66C120.81 14.1619 122.838 16.19 125.34 16.19Z" fill="#E0E0E0"/>
<path d="M236.8 90.29C238.567 90.29 240 88.8573 240 87.09C240 85.3227 238.567 83.89 236.8 83.89C235.033 83.89 233.6 85.3227 233.6 87.09C233.6 88.8573 235.033 90.29 236.8 90.29Z" fill="#E0E0E0"/>
<path d="M225.14 115.95C227.642 115.95 229.67 113.922 229.67 111.42C229.67 108.918 227.642 106.89 225.14 106.89C222.638 106.89 220.61 108.918 220.61 111.42C220.61 113.922 222.638 115.95 225.14 115.95Z" fill="#E0E0E0"/>
<path d="M183.8 153.77C190.01 153.77 195.04 148.74 195.04 142.53L201.71 68.93C201.93 66.46 199.99 64.34 197.51 64.34H176.25H90.1C87.82 64.34 85.95 66.15 85.89 68.43L83.78 142.53C83.78 148.74 78.75 153.77 72.54 153.77H183.8Z" fill="white"/>
<path d="M183.8 153.77C190.01 153.77 195.04 148.74 195.04 142.53L201.71 68.93C201.93 66.46 199.99 64.34 197.51 64.34H176.25H90.1C87.82 64.34 85.95 66.15 85.89 68.43L83.78 142.53C83.78 148.74 78.75 153.77 72.54 153.77H183.8Z" stroke="#999999" stroke-width="1.9901" stroke-miterlimit="10" stroke-linecap="round" stroke-linejoin="round"/>
<path d="M168.15 117.68C170.221 117.68 171.9 116.059 171.9 114.06C171.9 112.061 170.221 110.44 168.15 110.44C166.079 110.44 164.4 112.061 164.4 114.06C164.4 116.059 166.079 117.68 168.15 117.68Z" fill="#999999"/>
<path d="M118.9 117.68C120.971 117.68 122.65 116.059 122.65 114.06C122.65 112.061 120.971 110.44 118.9 110.44C116.829 110.44 115.15 112.061 115.15 114.06C115.15 116.059 116.829 117.68 118.9 117.68Z" fill="#999999"/>
<path d="M136.58 125.76H149.22" stroke="#999999" stroke-width="1.9901" stroke-miterlimit="10" stroke-linecap="round" stroke-linejoin="round"/>
<path d="M106.9 106.93L118.56 101.35" stroke="#999999" stroke-width="1.9901" stroke-miterlimit="10" stroke-linecap="round" stroke-linejoin="round"/>
<path d="M178.48 106.93L166.82 101.35" stroke="#999999" stroke-width="1.9901" stroke-miterlimit="10" stroke-linecap="round" stroke-linejoin="round"/>
</svg>
