<svg xmlns="http://www.w3.org/2000/svg" width="272.97" height="171.49" viewBox="0 0 272.97 171.49">
  <title>Asset 1</title>
  <g id="Layer_2" data-name="Layer 2">
    <g id="Layer_1-2" data-name="Layer 1">
      <g>
        <g>
          <circle cx="135.71" cy="85.75" r="85.75" style="fill: #daebf9"/>
          <g>
            <g>
              <g>
                <path d="M92.13,34.86,35.77,45.18a3,3,0,0,0-2.44,3.53L49.94,139.4a3,3,0,0,0,3.53,2.44l73.92-13.53a3,3,0,0,0,2.44-3.53L116.69,53Z" style="fill: #fff"/>
                <path d="M52.92,143a4.07,4.07,0,0,1-2.33-.73,4,4,0,0,1-1.71-2.64L32.27,48.91a4.11,4.11,0,0,1,3.31-4.79L91.94,33.8a1.05,1.05,0,0,1,.84.19l24.55,18.16a1.12,1.12,0,0,1,.42.68l13.14,71.75a4.11,4.11,0,0,1-3.31,4.79L53.67,142.9A3.88,3.88,0,0,1,52.92,143Zm39-107L36,46.24a1.92,1.92,0,0,0-1.26.81,2,2,0,0,0-.32,1.47L51,139.21a2,2,0,0,0,.81,1.26,2,2,0,0,0,1.47.31l73.91-13.53a2,2,0,0,0,1.26-.82,2,2,0,0,0,.32-1.46L115.7,53.64Z" style="fill: #6b6b6b"/>
              </g>
              <path d="M92,35l3.39,18.53A3,3,0,0,0,99,55.93l17.67-3.24Z" style="fill: #fff"/>
              <g>
                <g>
                  <g>
                    <rect x="77.56" y="54.34" width="8.1" height="8.1" rx="2" ry="2" transform="translate(-9.18 15.65) rotate(-10.37)" style="fill: #faddd8"/>
                    <rect x="88.03" y="52.43" width="8.1" height="8.1" rx="2" ry="2" transform="translate(-8.66 17.5) rotate(-10.37)" style="fill: #fff5d3"/>
                    <rect x="98.49" y="50.51" width="8.1" height="8.1" rx="2" ry="2" transform="translate(-8.15 19.35) rotate(-10.37)" style="fill: #cce9e4"/>
                  </g>
                  <rect x="46.17" y="61.73" width="22.5" height="2.18" transform="translate(-10.37 11.37) rotate(-10.37)" style="fill: #6b6b6b"/>
                </g>
                <g>
                  <g>
                    <rect x="81.12" y="73.8" width="8.1" height="8.1" rx="2" ry="2" transform="translate(-12.62 16.61) rotate(-10.37)" style="fill: #faddd8"/>
                    <rect x="91.59" y="71.89" width="8.1" height="8.1" rx="2" ry="2" transform="translate(-12.11 18.46) rotate(-10.37)" style="fill: #ffefd7"/>
                    <rect x="102.05" y="69.97" width="8.1" height="8.1" rx="2" ry="2" transform="translate(-11.59 20.31) rotate(-10.37)" style="fill: #cce9e4"/>
                  </g>
                  <rect x="49.73" y="81.18" width="22.5" height="2.18" transform="translate(-13.82 12.33) rotate(-10.37)" style="fill: #6b6b6b"/>
                </g>
                <g>
                  <g>
                    <rect x="84.69" y="93.26" width="8.1" height="8.1" rx="2" ry="2" transform="translate(-16.07 17.57) rotate(-10.37)" style="fill: #faddd8"/>
                    <rect x="95.15" y="91.34" width="8.1" height="8.1" rx="2" ry="2" transform="translate(-15.55 19.42) rotate(-10.37)" style="fill: #ffefd7"/>
                    <rect x="105.62" y="89.43" width="8.1" height="8.1" rx="2" ry="2" transform="translate(-15.04 21.27) rotate(-10.37)" style="fill: #cce9e4"/>
                  </g>
                  <rect x="53.29" y="100.64" width="22.5" height="2.18" transform="translate(-17.26 13.28) rotate(-10.37)" style="fill: #6b6b6b"/>
                </g>
                <g>
                  <g>
                    <rect x="88.25" y="112.72" width="8.1" height="8.1" rx="2" ry="2" transform="translate(-19.52 18.53) rotate(-10.37)" style="fill: #faddd8"/>
                    <rect x="98.71" y="110.8" width="8.1" height="8.1" rx="2" ry="2" transform="translate(-19 20.38) rotate(-10.37)" style="fill: #ffefd7"/>
                    <rect x="109.18" y="108.89" width="8.1" height="8.1" rx="2" ry="2" transform="translate(-18.48 22.23) rotate(-10.37)" style="fill: #cce9e4"/>
                  </g>
                  <rect x="56.86" y="120.1" width="22.5" height="2.18" transform="translate(-20.71 14.24) rotate(-10.37)" style="fill: #6b6b6b"/>
                </g>
              </g>
              <g>
                <path d="M92,35l3.39,18.53A3,3,0,0,0,99,55.93l17.67-3.24Z" style="fill: #fff"/>
                <path d="M98.4,57.06a4.09,4.09,0,0,1-2.33-.73,4.14,4.14,0,0,1-1.71-2.65L91,35.15a1.07,1.07,0,0,1,1.69-1.07l24.6,17.73a1.09,1.09,0,0,1,.42,1.12,1.07,1.07,0,0,1-.86.82L99.15,57A4.76,4.76,0,0,1,98.4,57.06ZM93.58,37.4l2.91,15.89a1.92,1.92,0,0,0,.81,1.26,1.9,1.9,0,0,0,1.46.31l15.18-2.78Z" style="fill: #979797"/>
                <path d="M98.4,57.06a4.09,4.09,0,0,1-2.33-.73,4.14,4.14,0,0,1-1.71-2.65L91,35.15a1.07,1.07,0,0,1,1.69-1.07l24.6,17.73a1.09,1.09,0,0,1,.42,1.12,1.07,1.07,0,0,1-.86.82L99.15,57A4.76,4.76,0,0,1,98.4,57.06ZM93.58,37.4l2.91,15.89a1.92,1.92,0,0,0,.81,1.26,1.9,1.9,0,0,0,1.46.31l15.18-2.78Z" style="fill: #979797"/>
              </g>
            </g>
            <g>
              <g>
                <path d="M222.52,40.91l-56.71-8.15a3,3,0,0,0-3.44,2.58L149.25,126.6a3,3,0,0,0,2.58,3.43l74.38,10.69a3,3,0,0,0,3.43-2.57L240,66Z" style="fill: #fff"/>
                <path d="M226.64,141.84a4,4,0,0,1-.59-.05L151.67,131.1a4.06,4.06,0,0,1-2.71-1.6,4.13,4.13,0,0,1-.78-3.06L161.3,35.18A4.12,4.12,0,0,1,166,31.69l56.72,8.15a1.13,1.13,0,0,1,.73.45l17.5,25a1.1,1.1,0,0,1,.18.77l-10.38,72.21A4.13,4.13,0,0,1,226.64,141.84Zm-61.27-108a2,2,0,0,0-1.17.39,1.91,1.91,0,0,0-.76,1.29l-13.12,91.26A2,2,0,0,0,152,129l74.38,10.68a2,2,0,0,0,2.22-1.65l10.31-71.79-17-24.29-56.26-8.09Z" style="fill: #6b6b6b"/>
              </g>
              <path d="M222.39,41l-2.68,18.65a3.05,3.05,0,0,0,2.58,3.44l17.78,2.55Z" style="fill: #fff"/>
              <g>
                <g>
                  <g>
                    <rect x="201.19" y="55.35" width="8.01" height="8.01" rx="2" ry="2" transform="translate(10.95 -29.5) rotate(8.45)" style="fill: #faddd8"/>
                    <rect x="211.59" y="56.9" width="8.01" height="8.01" rx="2" ry="2" transform="translate(11.29 -31.01) rotate(8.45)" style="fill: #fff5d3"/>
                    <rect x="222" y="58.45" width="8.01" height="8.01" rx="2" ry="2" transform="translate(11.63 -32.53) rotate(8.45)" style="fill: #dcefeb"/>
                  </g>
                  <rect x="170.01" y="54.71" width="22.25" height="2.16" transform="translate(10.16 -26.01) rotate(8.45)" style="fill: #6b6b6b"/>
                </g>
                <g>
                  <g>
                    <rect x="198.31" y="74.71" width="8.01" height="8.01" rx="2" ry="2" transform="translate(13.76 -28.87) rotate(8.45)" style="fill: #faddd8"/>
                    <rect x="208.72" y="76.25" width="8.01" height="8.01" rx="2" ry="2" transform="translate(14.1 -30.38) rotate(8.45)" style="fill: #fff5d3"/>
                    <rect x="219.13" y="77.8" width="8.01" height="8.01" rx="2" ry="2" transform="translate(14.44 -31.89) rotate(8.45)" style="fill: #dcefeb"/>
                  </g>
                  <rect x="177.18" y="64.01" width="2.16" height="22.25" transform="translate(77.75 240.43) rotate(-81.55)" style="fill: #6b6b6b"/>
                </g>
                <g>
                  <g>
                    <rect x="195.44" y="94.06" width="8.01" height="8.01" rx="2" ry="2" transform="translate(16.57 -28.24) rotate(8.45)" style="fill: #faddd8"/>
                    <rect x="205.85" y="95.6" width="8.01" height="8.01" rx="2" ry="2" transform="translate(16.91 -29.75) rotate(8.45)" style="fill: #fff5d3"/>
                    <rect x="216.25" y="97.15" width="8.01" height="8.01" rx="2" ry="2" transform="translate(17.25 -31.26) rotate(8.45)" style="fill: #dcefeb"/>
                  </g>
                  <rect x="174.31" y="83.36" width="2.16" height="22.25" transform="translate(56.16 254.09) rotate(-81.55)" style="fill: #979797"/>
                </g>
                <g>
                  <g>
                    <rect x="192.57" y="113.41" width="8.01" height="8.01" rx="2" ry="2" transform="translate(19.38 -27.6) rotate(8.45)" style="fill: #faddd8"/>
                    <rect x="202.97" y="114.95" width="8.01" height="8.01" rx="2" ry="2" transform="translate(19.72 -29.12) rotate(8.45)" style="fill: #fff5d3"/>
                    <rect x="213.38" y="116.5" width="8.01" height="8.01" rx="2" ry="2" transform="translate(20.06 -30.63) rotate(8.45)" style="fill: #dcefeb"/>
                  </g>
                  <rect x="161.39" y="112.76" width="22.25" height="2.16" transform="translate(18.6 -24.11) rotate(8.45)" style="fill: #979797"/>
                </g>
              </g>
              <g>
                <path d="M222.39,41l-2.68,18.65a3.05,3.05,0,0,0,2.58,3.44l17.78,2.55Z" style="fill: #fff"/>
                <path d="M240.07,66.69h-.16l-17.78-2.55a4.12,4.12,0,0,1-3.49-4.66l2.68-18.65a1.08,1.08,0,0,1,.82-.89,1.06,1.06,0,0,1,1.13.42L241,65a1.08,1.08,0,0,1-.88,1.71Zm-17-22.9-2.3,16A2,2,0,0,0,222.44,62l15.27,2.19Z" style="fill: #979797"/>
                <path d="M240.07,66.69h-.16l-17.78-2.55a4.12,4.12,0,0,1-3.49-4.66l2.68-18.65a1.08,1.08,0,0,1,.82-.89,1.06,1.06,0,0,1,1.13.42L241,65a1.08,1.08,0,0,1-.88,1.71Zm-17-22.9-2.3,16A2,2,0,0,0,222.44,62l15.27,2.19Z" style="fill: #6b6b6b"/>
              </g>
            </g>
            <g>
              <g>
                <path d="M162.28,28H95a3.56,3.56,0,0,0-3.56,3.56V139.9A3.56,3.56,0,0,0,95,143.47h88.27a3.57,3.57,0,0,0,3.57-3.57V54.21Z" style="fill: #fff"/>
                <path d="M183.24,144.55H95a4.65,4.65,0,0,1-4.64-4.65V31.59A4.64,4.64,0,0,1,95,27h67.31a1.08,1.08,0,0,1,.79.34L187.6,53.47a1.08,1.08,0,0,1,.29.74V139.9A4.65,4.65,0,0,1,183.24,144.55ZM95,29.11a2.48,2.48,0,0,0-2.48,2.48V139.9A2.49,2.49,0,0,0,95,142.39h88.27a2.5,2.5,0,0,0,2.49-2.49V54.64L161.81,29.11Z" style="fill: #6b6b6b"/>
              </g>
              <path d="M162.14,28.12V50.25a3.57,3.57,0,0,0,3.57,3.57h21.1Z" style="fill: #fff"/>
              <g>
                <g>
                  <g>
                    <rect x="140.77" y="50.17" width="9.33" height="9.33" rx="2" ry="2" style="fill: #faddd8"/>
                    <rect x="153.03" y="50.17" width="9.33" height="9.33" rx="2" ry="2" style="fill: #fff5d3"/>
                    <rect x="165.29" y="50.17" width="9.33" height="9.33" rx="2" ry="2" style="fill: #dcefeb"/>
                  </g>
                  <rect x="104.13" y="53.57" width="25.94" height="2.52" style="fill: #6b6b6b"/>
                </g>
                <g>
                  <g>
                    <rect x="140.77" y="72.97" width="9.33" height="9.33" rx="2" ry="2" style="fill: #faddd8"/>
                    <rect x="153.03" y="72.97" width="9.33" height="9.33" rx="2" ry="2" style="fill: #fff5d3"/>
                    <rect x="165.29" y="72.97" width="9.33" height="9.33" rx="2" ry="2" style="fill: #dcefeb"/>
                  </g>
                  <rect x="104.13" y="76.38" width="25.94" height="2.52" style="fill: #6b6b6b"/>
                </g>
                <g>
                  <g>
                    <rect x="140.77" y="95.77" width="9.33" height="9.33" rx="2" ry="2" style="fill: #faddd8"/>
                    <rect x="153.03" y="95.77" width="9.33" height="9.33" rx="2" ry="2" style="fill: #fff5d3"/>
                    <rect x="165.29" y="95.77" width="9.33" height="9.33" rx="2" ry="2" style="fill: #dcefeb"/>
                  </g>
                  <rect x="104.13" y="99.18" width="25.94" height="2.52" style="fill: #6b6b6b"/>
                </g>
                <g>
                  <g>
                    <rect x="140.77" y="118.57" width="9.33" height="9.33" rx="2" ry="2" style="fill: #faddd8"/>
                    <rect x="153.03" y="118.57" width="9.33" height="9.33" rx="2" ry="2" style="fill: #fff5d3"/>
                    <rect x="165.29" y="118.57" width="9.33" height="9.33" rx="2" ry="2" style="fill: #dcefeb"/>
                  </g>
                  <rect x="104.13" y="121.98" width="25.94" height="2.52" style="fill: #6b6b6b"/>
                </g>
              </g>
              <g>
                <path d="M162.14,28.12V50.25a3.57,3.57,0,0,0,3.57,3.57h21.1Z" style="fill: #fff"/>
                <path d="M186.81,54.9h-21.1a4.66,4.66,0,0,1-4.65-4.65V28.12a1.07,1.07,0,0,1,.68-1,1.06,1.06,0,0,1,1.18.25l24.67,25.7a1.08,1.08,0,0,1-.78,1.83ZM163.22,30.81V50.25a2.5,2.5,0,0,0,2.49,2.49h18.57Z" style="fill: #979797"/>
                <path d="M186.81,54.9h-21.1a4.66,4.66,0,0,1-4.65-4.65V28.12a1.07,1.07,0,0,1,.68-1,1.06,1.06,0,0,1,1.18.25l24.67,25.7a1.08,1.08,0,0,1-.78,1.83ZM163.22,30.81V50.25a2.5,2.5,0,0,0,2.49,2.49h18.57Z" style="fill: #6b6b6b"/>
              </g>
            </g>
          </g>
        </g>
        <path d="M11.65,49.18l2.48-2.48a.74.74,0,0,0,0-1.05.75.75,0,0,0-1.06,0L10.6,48.12,8.12,45.65a.74.74,0,0,0-1,0,.73.73,0,0,0,0,1.05l2.47,2.48L7.07,51.65a.74.74,0,0,0,0,1.06.7.7,0,0,0,.52.22.73.73,0,0,0,.53-.22l2.48-2.47,2.47,2.47a.75.75,0,0,0,1.06,0,.75.75,0,0,0,0-1.06Z" style="fill: #fde27f"/>
        <path d="M13.64,114.64H8.5v-5.13a1.13,1.13,0,0,0-2.25,0v5.13H1.12a1.13,1.13,0,0,0,0,2.25H6.25V122a1.13,1.13,0,0,0,2.25,0v-5.14h5.14a1.13,1.13,0,0,0,0-2.25Z" style="fill: #fde27f"/>
        <path d="M44.43,27.89H42.05V25.51a.74.74,0,0,0-.74-.75.75.75,0,0,0-.75.75v2.38H38.18a.75.75,0,0,0-.75.75.74.74,0,0,0,.75.74h2.38v2.38a.75.75,0,0,0,.75.74.74.74,0,0,0,.74-.74V29.38h2.38a.74.74,0,0,0,.74-.74A.75.75,0,0,0,44.43,27.89Z" style="fill: #fde27f"/>
        <path d="M261.51,101.85,264,99.37a.74.74,0,1,0-1.05-1.05l-2.48,2.47L258,98.32a.75.75,0,0,0-1.06,0,.74.74,0,0,0,0,1.05l2.48,2.48-2.48,2.47a.75.75,0,0,0,0,1.06.75.75,0,0,0,1.06,0l2.47-2.48,2.48,2.48a.74.74,0,0,0,1.05,0,.75.75,0,0,0,0-1.06Z" style="fill: #fde27f"/>
        <path d="M271.84,52H266.7V46.89a1.12,1.12,0,1,0-2.24,0V52h-5.13a1.12,1.12,0,0,0,0,2.24h5.13V59.4a1.12,1.12,0,1,0,2.24,0V54.26h5.14a1.12,1.12,0,1,0,0-2.24Z" style="fill: #fde27f"/>
        <path d="M234.67,31.85A3.85,3.85,0,1,1,238.53,28,3.85,3.85,0,0,1,234.67,31.85Zm0-6.21A2.36,2.36,0,1,0,237,28,2.36,2.36,0,0,0,234.67,25.64Z" style="fill: #fde27f"/>
        <path d="M258.61,145.65a3.85,3.85,0,1,1,3.85-3.85A3.85,3.85,0,0,1,258.61,145.65Zm0-6.21A2.36,2.36,0,1,0,261,141.8,2.36,2.36,0,0,0,258.61,139.44Z" style="fill: #fde27f"/>
        <path d="M32.66,149.8a3.86,3.86,0,1,1,3.85-3.86A3.86,3.86,0,0,1,32.66,149.8Zm0-6.21A2.36,2.36,0,1,0,35,145.94,2.36,2.36,0,0,0,32.66,143.59Z" style="fill: #fde27f"/>
        <path d="M19.51,85.27a3.86,3.86,0,1,1,3.86-3.85A3.86,3.86,0,0,1,19.51,85.27Zm0-6.21a2.36,2.36,0,1,0,2.36,2.36A2.36,2.36,0,0,0,19.51,79.06Z" style="fill: #fde27f"/>
      </g>
    </g>
  </g>
</svg>
