<svg width="94" height="74"
    xmlns="http://www.w3.org/2000/svg"
    xmlns:xlink="http://www.w3.org/1999/xlink">
    <defs>
        <path id="a" d="M.168.52H54.48v7.094H.168z"/>
    </defs>
    <g fill="none" fill-rule="evenodd">
        <g transform="translate(20.669 66.262)">
            <mask id="b" fill="#fff">
                <use xlink:href="#a"/>
            </mask>
            <path d="M27.324.52C42.322.52 54.48 2.108 54.48 4.067S42.322 7.614 27.324 7.614.168 6.026.168 4.067C.168 2.107 12.326.52 27.324.52" fill="#EEE" mask="url(#b)"/>
        </g>
        <path d="M3.701 18.544a.492.492 0 1 1 .695.696l-2.944 2.944a.492.492 0 0 1-.695-.696l2.944-2.944z" fill="#F1C40F" fill-rule="nonzero"/>
        <path d="M.757 19.24a.492.492 0 1 1 .695-.696l2.944 2.944a.492.492 0 1 1-.695.696L.757 19.24zM6.602 44.233a.74.74 0 0 1 1.479 0v6.136a.74.74 0 0 1-1.479 0v-6.136z" fill="#F1C40F" fill-rule="nonzero"/>
        <path d="M4.277 48.037a.74.74 0 0 1 0-1.479h6.136a.74.74 0 0 1 0 1.479H4.277z" fill="#F1C40F" fill-rule="nonzero"/>
        <path d="M8.573 29.348a1.345 1.345 0 1 1 0 2.69 1.345 1.345 0 0 1 0-2.69" fill="#F1C40F"/>
        <path d="M84.845 56.27a.492.492 0 0 1 .696.696l-2.944 2.95a.492.492 0 0 1-.696-.695l2.944-2.95z" fill="#F1C40F" fill-rule="nonzero"/>
        <path d="M81.9 56.966a.492.492 0 1 1 .697-.695l2.944 2.95a.492.492 0 1 1-.696.695l-2.944-2.95zM88.463 16.779a.74.74 0 1 1 1.479 0v7.132a.74.74 0 1 1-1.479 0v-7.132z" fill="#F1C40F" fill-rule="nonzero"/>
        <path d="M85.637 21.084a.74.74 0 1 1 0-1.479h7.125a.74.74 0 0 1 0 1.479h-7.125z" fill="#F1C40F" fill-rule="nonzero"/>
        <path d="M79.926 3.468a1.573 1.573 0 1 1 .001 3.146 1.573 1.573 0 0 1 0-3.146M90.789 44.093a1.573 1.573 0 1 1 0 3.147 1.573 1.573 0 0 1 0-3.147M18.318 58.496a1.345 1.345 0 1 1 0 2.69 1.345 1.345 0 0 1 0-2.69" fill="#F1C40F"/>
        <path d="M17.141.492c0-.272.224-.492.5-.492s.5.22.5.492v3.064a.496.496 0 0 1-.5.492c-.276 0-.5-.22-.5-.492V.492z" fill="#F1C40F" fill-rule="nonzero"/>
        <path d="M16.098 2.536a.496.496 0 0 1-.492-.5c0-.277.22-.5.492-.5h3.064c.272 0 .492.223.492.5 0 .276-.22.5-.492.5h-3.064z" fill="#F1C40F" fill-rule="nonzero"/>
        <path d="M70.834 32.222c-.056 12.647-10.354 22.852-23 22.796-12.647-.057-22.853-10.355-22.796-23.001.056-12.647 10.355-22.853 23-22.795a22.892 22.892 0 0 1 11.7 3.274s2.95-3.908 3.045-3.908C49.76.188 32.396 3.935 23.997 16.957c-8.4 13.021-4.653 30.386 8.369 38.785 13.021 8.4 30.386 4.653 38.786-8.368a28.058 28.058 0 0 0 4.479-15.152h-4.797z" fill="#F9F9F9"/>
        <path d="M70.834 32.222c-.056 12.647-10.354 22.852-23 22.796-12.647-.057-22.853-10.355-22.796-23.001.056-12.647 10.355-22.853 23-22.795a22.892 22.892 0 0 1 11.7 3.274s2.95-3.908 3.045-3.908C49.76.188 32.396 3.935 23.997 16.957c-8.4 13.021-4.653 30.386 8.369 38.785 13.021 8.4 30.386 4.653 38.786-8.368a28.058 28.058 0 0 0 4.479-15.152h-4.797z" fill="#93ECD3"/>
        <path d="M63.183 9.08l-.069.079c-.079.094-.192.235-.336.415-.257.325-.602.77-1.013 1.306l-.037.048a333.349 333.349 0 0 0-1.358 1.783l-.126.167a.634.634 0 0 1-.834.162 22.257 22.257 0 0 0-11.374-3.184c-12.296-.055-22.309 9.868-22.364 22.163-.055 12.296 9.868 22.309 22.164 22.364 12.296.055 22.309-9.868 22.364-22.164a.634.634 0 0 1 .634-.631h4.797c.35 0 .635.285.635.635a28.693 28.693 0 0 1-4.581 15.495c-8.59 13.315-26.347 17.147-39.663 8.558-13.316-8.59-17.148-26.347-8.558-39.663C32.053 3.297 49.81-.535 63.127 8.055c.463.298.338.963-.12 1.13.161-.079.169-.088.176-.105zm-.176.104a.655.655 0 0 1-.224.038c.18-.05.276-.078.33-.096l-.106.058zm8.45 23.673c-.39 12.703-10.84 22.852-23.627 22.795-12.996-.058-23.485-10.642-23.426-23.638.058-12.997 10.641-23.486 23.637-23.427a23.525 23.525 0 0 1 11.53 3.077 403.013 403.013 0 0 1 1.15-1.508l.037-.048a115.583 115.583 0 0 1 1.066-1.372C49.17 1.03 32.608 4.777 24.53 17.3c-8.21 12.728-4.547 29.7 8.18 37.91 12.726 8.209 29.699 4.546 37.908-8.18a27.424 27.424 0 0 0 4.37-14.173h-3.53z" fill="#1ABC9C" fill-rule="nonzero"/>
        <path d="M38.33 26.715c.184.165.4.33.59.52 2.493 2.487 5.006 4.968 7.468 7.487.564.578.888.597 1.472 0A9247.901 9247.901 0 0 1 71.126 11.45l.508-.482c1.199 1.27 2.392 2.456 3.528 3.712.03.295-.07.59-.273.806a1873.557 1873.557 0 0 1-9.962 10C59.242 31.164 53.56 36.85 47.88 42.538c-.565.565-.882.634-1.466 0-3.75-3.807-7.544-7.576-11.319-11.357-.21-.21-.406-.438-.571-.616l3.807-3.851z" fill="#93ECD3"/>
        <path d="M35.543 30.733c.807.808 1.561 1.563 2.833 2.834l.568.567c3.822 3.82 5.715 5.72 7.936 7.975.302.328.2.332.55-.018 5.614-5.624 11.294-11.306 17.05-17.056 3.364-3.352 6.682-6.683 9.947-9.985a.389.389 0 0 0 .085-.142 78.79 78.79 0 0 0-1.4-1.487 1084.443 1084.443 0 0 0-1.501-1.557l-.037.035a9252.249 9252.249 0 0 0-23.26 23.267c-.828.845-1.56.837-2.38 0a525.486 525.486 0 0 0-5.419-5.447l-.973-.968-1.07-1.067a3.008 3.008 0 0 0-.108-.101l-2.966 3a6.7 6.7 0 0 0 .145.15zm2.76-4.894l.45.404c.063.056.345.295.316.27.118.1.21.185.299.273l1.07 1.065c.21.211.486.485.973.969a526.515 526.515 0 0 1 5.43 5.458c.326.333.24.333.57-.004A9207.675 9207.675 0 0 1 70.688 10.99l.97-.92.436.462c.287.304.58.61.967 1.011-.017-.018.75.775.964.999a74.44 74.44 0 0 1 1.606 1.712l.14.154.02.207c.05.479-.111.955-.452 1.317a1873.94 1873.94 0 0 1-9.964 10.002c-5.754 5.75-11.434 11.431-17.049 17.055-.838.838-1.566.866-2.366-.004a1329.614 1329.614 0 0 0-7.914-7.952l-.568-.567a3308.944 3308.944 0 0 1-2.834-2.835 8.05 8.05 0 0 1-.182-.189c-.092-.098-.368-.403-.405-.443l-.414-.445 4.66-4.714z" fill="#1ABC9C" fill-rule="nonzero"/>
    </g>
</svg>
