<svg xmlns="http://www.w3.org/2000/svg" version="1.1" xmlns:xlink="http://www.w3.org/1999/xlink" xmlns:svgjs="http://svgjs.dev/svgjs" width="1000" height="194" viewBox="0 0 1000 194"><g transform="matrix(1,0,0,1,-0.6060438966432571,-0.14842865455368326)"><svg viewBox="0 0 396 77" data-background-color="#b5a9a4" preserveAspectRatio="xMidYMid meet" height="194" width="1000" xmlns="http://www.w3.org/2000/svg" xmlns:xlink="http://www.w3.org/1999/xlink"><g id="tight-bounds" transform="matrix(1,0,0,1,0.23999338307072549,0.058913850366195675)"><svg viewBox="0 0 395.52 76.88217374550682" height="76.88217374550682" width="395.52"><g><svg viewBox="0 0 395.52 76.88217374550682" height="76.88217374550682" width="395.52"><g><svg viewBox="0 0 395.52 76.88217374550682" height="76.88217374550682" width="395.52"><g><svg viewBox="0 0 395.52 76.88217374550682" height="76.88217374550682" width="395.52"><g><svg viewBox="0 0 395.52 76.88217374550682" height="76.88217374550682" width="395.52"><g><svg viewBox="0 0 395.52 76.88217374550682" height="76.88217374550682" width="395.52"><g><svg viewBox="0 0 395.52 41.4665708123652" height="41.4665708123652" width="395.52"><g transform="matrix(1,0,0,1,0,0)"><svg width="395.52" viewBox="1.5499999523162842 -43.349998474121094 417.260009765625 43.75" height="41.4665708123652" data-palette-color="#ff5c0b"><path d="M10.75 0.4Q6.1 0.4 3.83-2.88 1.55-6.15 1.55-12.8L1.55-12.8 1.55-31.3Q1.55-37.25 4.2-40.3 6.85-43.35 12.1-43.35L12.1-43.35Q16.35-43.35 18.7-41.65 21.05-39.95 21.95-36.7 22.85-33.45 22.85-28.35L22.85-28.35 14.45-28.35 14.45-32.2Q14.45-33.75 14.03-34.6 13.6-35.45 12.5-35.45L12.5-35.45Q10.05-35.45 10.05-32.25L10.05-32.25 10.05-11.45Q10.05-9.5 10.55-8.5 11.05-7.5 12.3-7.5L12.3-7.5Q13.55-7.5 14.05-8.5 14.55-9.5 14.55-11.45L14.55-11.45 14.55-17.6 12.25-17.6 12.25-25 22.75-25 22.75 0 19.3 0 17.85-3.6Q15.55 0.4 10.75 0.4L10.75 0.4ZM33.35 0L25 0 29.15-42.95 43.7-42.95 47.8 0 39.65 0 39.05-6.95 33.85-6.95 33.35 0ZM36.1-35.65L34.5-13.8 38.4-13.8 36.5-35.65 36.1-35.65ZM58.15 0L50.4 0 50.4-42.95 63.5-42.95 67.09-16.75 70.7-42.95 83.9-42.95 83.9 0 76.05 0 76.05-30.95 71.09 0 63.4 0 58.15-30.95 58.15 0ZM105.44 0L87.69 0 87.69-42.95 104.89-42.95 104.89-34.65 96.44-34.65 96.44-26.3 104.54-26.3 104.54-18.2 96.44-18.2 96.44-8.35 105.44-8.35 105.44 0ZM119.99 0L119.99-42.95 131.64-42.95Q136.34-42.95 138.46-40.65 140.59-38.35 140.59-33.15L140.59-33.15 140.59-31.25Q140.59-25.1 136.19-23.9L136.19-23.9Q138.89-23.2 139.99-20.65 141.09-18.1 141.09-13.9L141.09-13.9Q141.09-7.05 139.04-3.53 136.99 0 131.64 0L131.64 0 119.99 0ZM128.39-26.8L130.14-26.8Q131.24-26.8 131.64-27.63 132.04-28.45 132.04-29.95L132.04-29.95 132.04-34.25Q132.04-36.35 130.19-36.35L130.19-36.35 128.39-36.35 128.39-26.8ZM129.24-7.55Q132.59-7.55 132.59-10.75L132.59-10.75 132.59-16.1Q132.59-18.05 132.01-19.05 131.44-20.05 129.99-20.05L129.99-20.05 128.39-20.05 128.39-7.6 129.24-7.55ZM151.14 0L142.79 0 146.94-42.95 161.49-42.95 165.59 0 157.44 0 156.84-6.95 151.64-6.95 151.14 0ZM153.89-35.65L152.29-13.8 156.19-13.8 154.29-35.65 153.89-35.65ZM178.38 0.4Q172.53 0.4 169.93-2.5 167.33-5.4 167.33-11.85L167.33-11.85 167.33-16.05 175.78-16.05 175.78-10.7Q175.78-7.5 177.83-7.5L177.83-7.5Q178.98-7.5 179.43-8.18 179.88-8.85 179.88-10.45L179.88-10.45Q179.88-12.55 179.38-13.93 178.88-15.3 178.11-16.23 177.33-17.15 175.33-19.1L175.33-19.1 171.63-22.8Q167.33-27 167.33-32.1L167.33-32.1Q167.33-37.6 169.86-40.48 172.38-43.35 177.23-43.35L177.23-43.35Q183.03-43.35 185.58-40.28 188.13-37.2 188.13-30.65L188.13-30.65 179.38-30.65 179.33-33.6Q179.33-34.45 178.86-34.95 178.38-35.45 177.53-35.45L177.53-35.45Q176.53-35.45 176.03-34.9 175.53-34.35 175.53-33.4L175.53-33.4Q175.53-31.3 177.93-29.05L177.93-29.05 182.93-24.25Q184.68-22.55 185.83-21.03 186.98-19.5 187.68-17.43 188.38-15.35 188.38-12.5L188.38-12.5Q188.38-6.15 186.06-2.88 183.73 0.4 178.38 0.4L178.38 0.4ZM208.98 0L191.23 0 191.23-42.95 208.43-42.95 208.43-34.65 199.98-34.65 199.98-26.3 208.08-26.3 208.08-18.2 199.98-18.2 199.98-8.35 208.98-8.35 208.98 0ZM211.83 0L211.83-42.95 223.68-42.95Q228.28-42.95 230.58-40.4 232.88-37.85 232.93-32.85L232.93-32.85 233.03-12.75Q233.08-6.4 230.83-3.2 228.58 0 223.38 0L223.38 0 211.83 0ZM220.48-7.6L221.98-7.6Q224.33-7.6 224.33-9.9L224.33-9.9 224.33-32.05Q224.33-33.5 224.1-34.23 223.88-34.95 223.28-35.2 222.68-35.45 221.43-35.45L221.43-35.45 220.48-35.45 220.48-7.6ZM265.62 0L248.17 0 248.17-42.95 256.77-42.95 256.77-7.3 265.62-7.3 265.62 0ZM285.77 0L268.02 0 268.02-42.95 285.22-42.95 285.22-34.65 276.77-34.65 276.77-26.3 284.87-26.3 284.87-18.2 276.77-18.2 276.77-8.35 285.77-8.35 285.77 0ZM295.82 0L287.47 0 291.62-42.95 306.17-42.95 310.27 0 302.12 0 301.52-6.95 296.32-6.95 295.82 0ZM298.57-35.65L296.97-13.8 300.87-13.8 298.97-35.65 298.57-35.65ZM312.87 0L312.87-42.95 326.07-42.95Q329.22-42.95 330.94-41.53 332.67-40.1 333.27-37.52 333.87-34.95 333.87-30.95L333.87-30.95Q333.87-27.3 332.92-25.25 331.97-23.2 329.62-22.4L329.62-22.4Q331.57-22 332.44-20.45 333.32-18.9 333.32-16.25L333.32-16.25 333.22 0 324.82 0 324.82-16.8Q324.82-18.6 324.12-19.1 323.42-19.6 321.57-19.6L321.57-19.6 321.57 0 312.87 0ZM321.62-27.05L323.67-27.05Q325.47-27.05 325.47-30.95L325.47-30.95Q325.47-32.65 325.32-33.5 325.17-34.35 324.77-34.68 324.37-35 323.62-35L323.62-35 321.62-35 321.62-27.05ZM345.11 0L336.71 0 336.71-42.95 345.56-42.95 349.51-22.4 349.51-42.95 357.81-42.95 357.81 0 349.41 0 345.11-21.5 345.11 0ZM369.51 0L361.21 0 361.21-42.95 369.51-42.95 369.51 0ZM381.36 0L372.96 0 372.96-42.95 381.81-42.95 385.76-22.4 385.76-42.95 394.06-42.95 394.06 0 385.66 0 381.36-21.5 381.36 0ZM406.71 0.4Q402.06 0.4 399.78-2.88 397.51-6.15 397.51-12.8L397.51-12.8 397.51-31.3Q397.51-37.25 400.16-40.3 402.81-43.35 408.06-43.35L408.06-43.35Q412.31-43.35 414.66-41.65 417.01-39.95 417.91-36.7 418.81-33.45 418.81-28.35L418.81-28.35 410.41-28.35 410.41-32.2Q410.41-33.75 409.98-34.6 409.56-35.45 408.46-35.45L408.46-35.45Q406.01-35.45 406.01-32.25L406.01-32.25 406.01-11.45Q406.01-9.5 406.51-8.5 407.01-7.5 408.26-7.5L408.26-7.5Q409.51-7.5 410.01-8.5 410.51-9.5 410.51-11.45L410.51-11.45 410.51-17.6 408.21-17.6 408.21-25 418.71-25 418.71 0 415.26 0 413.81-3.6Q411.51 0.4 406.71 0.4L406.71 0.4Z" opacity="1" transform="matrix(1,0,0,1,0,0)" fill="#ff5c0b" class="undefined-text-0" data-fill-palette-color="primary" id="text-0"></path></svg></g></svg></g><g transform="matrix(1,0,0,1,0,51.255832983465126)"><svg viewBox="0 0 395.52 25.626340762041693" height="25.626340762041693" width="395.52"><g transform="matrix(1,0,0,1,0,0)"><svg width="395.52" viewBox="3.25 -37.5 583.72998046875 37.5" height="25.626340762041693" data-palette-color="#35185a"><g class="undefined-text-1" data-fill-palette-color="secondary" id="text-1"><path d="M17.55-24.65L20.95-24.65 20.95-14.15 17.55-14.15 17.55-17.7 10.5-17.7 10.5-3.4 23.3-3.4 23.3-9.25 26.7-9.25 26.7 0 3.25 0 3.25-3.4 6.4-3.4 6.4-34.1 3.25-34.1 3.25-37.5 26.7-37.5 26.7-28.25 23.3-28.25 23.3-34.1 10.5-34.1 10.5-21.1 17.55-21.1 17.55-24.65ZM73.5-37.5L91.15-37.5Q94.85-37.5 96.28-35.88 97.7-34.25 97.7-30.95L97.7-30.95 97.7-6.55Q97.7-3.1 96.1-1.55 94.5 0 91.15 0L91.15 0 73.5 0 73.5-3.4 76.65-3.4 76.65-34.1 73.5-34.1 73.5-37.5ZM93.6-3.4L93.6-34.1 80.75-34.1 80.75-3.4 93.6-3.4ZM165.46 0L152.61 0Q148.16 0 148.16-4.95L148.16-4.95 148.16-34.1 145.01-34.1 145.01-37.5 155.51-37.5 155.51-34.1 152.26-34.1 152.26-3.4 165.86-3.4 165.86-34.1 162.61-34.1 162.61-37.5 173.11-37.5 173.11-34.1 169.96-34.1 169.96-5.2Q169.96 0 165.46 0L165.46 0ZM237.76-3.4L237.76-9.25 241.16-9.25 241.16 0 225.81 0Q221.61 0 220.71-3.3L220.71-3.3Q220.41-4.25 220.41-5.35L220.41-5.35 220.41-32.1Q220.41-35.75 222.96-37L222.96-37Q223.91-37.5 225.31-37.5L225.31-37.5 241.16-37.5 241.16-28.25 237.76-28.25 237.76-34.1 224.51-34.1 224.51-3.4 237.76-3.4ZM296.51-16.5L305.41-16.5 300.96-34.1 296.51-16.5ZM312.51-3.4L315.76-3.4 315.76 0 306.01 0 306.01-3.4 308.71-3.4 306.21-13.35 295.71-13.35 293.21-3.4 295.96-3.4 295.96 0 286.21 0 286.21-3.4 289.36-3.4 298.06-37.5 303.96-37.5 312.51-3.4ZM366.32 0L366.32-3.4 369.47-3.4 369.47-34.1 363.17-34.1 363.17-28.2 359.57-28.2 359.57-37.5 383.52-37.5 383.52-28.2 379.87-28.2 379.87-34.1 373.57-34.1 373.57-3.4 376.82-3.4 376.82 0 366.32 0ZM437.32-34.1L437.32-3.4 440.57-3.4 440.57 0 430.07 0 430.07-3.4 433.22-3.4 433.22-34.1 430.07-34.1 430.07-37.5 440.57-37.5 440.57-34.1 437.32-34.1ZM494.43-37.5L504.18-37.5Q507.23-37.5 508.6-35.83 509.98-34.15 509.98-30.85L509.98-30.85 509.98-6.8Q509.98-3.2 508.78-1.6 507.58 0 504.43 0L504.43 0 494.83 0Q490.03 0 489.18-3.6L489.18-3.6Q488.88-4.7 488.88-6.05L488.88-6.05 488.88-30.85Q488.88-34.2 489.98-35.7L489.98-35.7Q491.23-37.5 494.43-37.5L494.43-37.5ZM492.88-34.1L492.88-3.4 505.98-3.4 505.98-34.1 492.88-34.1ZM586.98-37.5L586.98-34.1 583.83-34.1 583.83 0 578.93 0 564.78-29.2 564.78-3.4 568.03-3.4 568.03 0 557.53 0 557.53-3.4 560.68-3.4 560.68-34.1 557.53-34.1 557.53-37.5 565.23-37.5 579.73-7.7 579.73-34.1 576.48-34.1 576.48-37.5 586.98-37.5Z" fill="#ff5c0b" data-fill-palette-color="primary"></path></g></svg></g></svg></g></svg></g></svg></g><g></g></svg></g></svg></g></svg></g><defs></defs></svg><rect width="395.52" height="76.88217374550682" fill="none" stroke="none" visibility="hidden"></rect></g></svg></g></svg>