<svg xmlns="http://www.w3.org/2000/svg" version="1.1" xmlns:xlink="http://www.w3.org/1999/xlink" xmlns:svgjs="http://svgjs.dev/svgjs" width="1000" height="171" viewBox="0 0 1000 171"><g transform="matrix(1,0,0,1,-0.6060606060606233,-0.5119679897329235)"><svg viewBox="0 0 396 68" data-background-color="#ffffff" preserveAspectRatio="xMidYMid meet" height="171" width="1000" xmlns="http://www.w3.org/2000/svg" xmlns:xlink="http://www.w3.org/1999/xlink"><g id="tight-bounds" transform="matrix(1,0,0,1,0.2400000000000091,0.2035896099522745)"><svg viewBox="0 0 395.52 67.59282078009545" height="67.59282078009545" width="395.52"><g><svg viewBox="0 0 549.2183707044051 93.85927108656674" height="67.59282078009545" width="395.52"><g transform="matrix(1,0,0,1,153.69837070440502,12.971867422238965)"><svg viewBox="0 0 395.52 67.9155362420888" height="67.9155362420888" width="395.52"><g><svg viewBox="0 0 395.52 67.9155362420888" height="67.9155362420888" width="395.52"><g><svg viewBox="0 0 395.52 36.630395001115815" height="36.630395001115815" width="395.52"><g transform="matrix(1,0,0,1,0,0)"><svg width="395.52" viewBox="2.45 -40.95 448.06 41.5" height="36.630395001115815" data-palette-color="#0080ff"><path d="M13.2 0.55L13.2 0.55Q9.2 0.55 6.85-1.15 4.5-2.85 3.48-5.98 2.45-9.1 2.45-13.35L2.45-13.35 2.45-26.95Q2.45-31.3 3.45-34.45 4.45-37.6 6.98-39.28 9.5-40.95 13.95-40.95L13.95-40.95Q18.1-40.95 20.55-39.55 23-38.15 24.08-35.52 25.15-32.9 25.15-29.15L25.15-29.15 25.15-27.05 18.1-27.05 18.1-29.35Q18.1-31.3 17.82-32.7 17.55-34.1 16.73-34.83 15.9-35.55 14.05-35.55L14.05-35.55Q12.1-35.55 11.23-34.6 10.35-33.65 10.13-32.1 9.9-30.55 9.9-28.7L9.9-28.7 9.9-11.75Q9.9-9.65 10.25-8.1 10.6-6.55 11.55-5.73 12.5-4.9 14.25-4.9L14.25-4.9Q16.05-4.9 17-5.8 17.95-6.7 18.32-8.3 18.7-9.9 18.7-12.1L18.7-12.1 18.7-15.9 14.35-15.9 14.35-20.55 25.35-20.55 25.35 0 20.6 0 20.05-4Q19.25-2 17.63-0.73 16 0.55 13.2 0.55ZM35.9 0L28.95 0 37.05-40.5 44.95-40.5 53.05 0 46.2 0 44.6-9.35 37.55-9.35 35.9 0ZM41.05-31.05L38.3-14.05 43.8-14.05 41.05-31.05ZM62.55 0L57 0 57.7-40.5 65.34-40.5 71.09-12.45 77.09-40.5 84.5-40.5 85.25 0 79.75 0 79.15-28.15 73.4 0 68.95 0 63.09-28.25 62.55 0ZM108.04 0L90.94 0 90.94-40.5 107.94-40.5 107.94-35.3 98.34-35.3 98.34-23.65 105.89-23.65 105.89-18.5 98.34-18.5 98.34-5.1 108.04-5.1 108.04 0ZM136.14 0L124.49 0 124.49-40.5 134.44-40.5Q137.14-40.5 139.31-40 141.49-39.5 143.06-38.33 144.64-37.15 145.49-35.15 146.34-33.15 146.34-30.1L146.34-30.1Q146.34-27.65 145.66-25.9 144.99-24.15 143.69-23.13 142.39-22.1 140.44-21.75L140.44-21.75Q142.84-21.35 144.41-20.08 145.99-18.8 146.76-16.75 147.54-14.7 147.54-11.8L147.54-11.8Q147.54-8.9 146.81-6.68 146.09-4.45 144.66-2.98 143.24-1.5 141.11-0.75 138.99 0 136.14 0L136.14 0ZM131.89-18.85L131.89-5.2 134.69-5.2Q138.04-5.2 139.24-6.83 140.44-8.45 140.44-11.85L140.44-11.85Q140.44-14.3 139.86-15.83 139.29-17.35 137.96-18.1 136.64-18.85 134.44-18.85L134.44-18.85 131.89-18.85ZM131.89-35.35L131.89-23.95 134.39-23.95Q136.59-23.95 137.79-24.6 138.99-25.25 139.46-26.6 139.94-27.95 139.94-30L139.94-30Q139.94-32.15 139.21-33.33 138.49-34.5 137.04-34.93 135.59-35.35 133.34-35.35L133.34-35.35 131.89-35.35ZM157.19 0L150.24 0 158.34-40.5 166.24-40.5 174.34 0 167.49 0 165.89-9.35 158.84-9.35 157.19 0ZM162.34-31.05L159.59-14.05 165.09-14.05 162.34-31.05ZM188.38 0.55L188.38 0.55Q184.73 0.55 182.28-0.88 179.83-2.3 178.58-5.05 177.33-7.8 177.18-11.8L177.18-11.8 183.53-13.05Q183.63-10.7 184.11-8.9 184.58-7.1 185.56-6.13 186.53-5.15 188.13-5.15L188.13-5.15Q189.93-5.15 190.68-6.23 191.43-7.3 191.43-8.95L191.43-8.95Q191.43-11.6 190.23-13.3 189.03-15 187.03-16.7L187.03-16.7 181.93-21.2Q179.78-23.05 178.51-25.33 177.23-27.6 177.23-30.95L177.23-30.95Q177.23-35.75 180.03-38.35 182.83-40.95 187.68-40.95L187.68-40.95Q190.53-40.95 192.43-40.08 194.33-39.2 195.46-37.65 196.58-36.1 197.13-34.13 197.68-32.15 197.83-29.95L197.83-29.95 191.53-28.85Q191.43-30.75 191.11-32.25 190.78-33.75 189.96-34.6 189.13-35.45 187.53-35.45L187.53-35.45Q185.88-35.45 185.01-34.38 184.13-33.3 184.13-31.7L184.13-31.7Q184.13-29.65 184.98-28.33 185.83-27 187.43-25.6L187.43-25.6 192.48-21.15Q194.98-19.05 196.76-16.23 198.53-13.4 198.53-9.4L198.53-9.4Q198.53-6.5 197.26-4.25 195.98-2 193.71-0.73 191.43 0.55 188.38 0.55ZM219.58 0L202.48 0 202.48-40.5 219.48-40.5 219.48-35.3 209.88-35.3 209.88-23.65 217.43-23.65 217.43-18.5 209.88-18.5 209.88-5.1 219.58-5.1 219.58 0ZM233.73 0L223.88 0 223.88-40.5 233.43-40.5Q238.38-40.5 241.15-39.15 243.93-37.8 245.1-35 246.28-32.2 246.28-27.9L246.28-27.9 246.28-13.1Q246.28-8.7 245.1-5.78 243.93-2.85 241.2-1.43 238.48 0 233.73 0L233.73 0ZM231.28-35.25L231.28-5.15 233.53-5.15Q236.08-5.15 237.18-6.05 238.28-6.95 238.53-8.68 238.78-10.4 238.78-12.9L238.78-12.9 238.78-28.4Q238.78-30.85 238.43-32.35 238.08-33.85 236.98-34.55 235.88-35.25 233.43-35.25L233.43-35.25 231.28-35.25ZM281.07 0L263.87 0 263.87-40.5 271.27-40.5 271.27-5.1 281.07-5.1 281.07 0ZM301.82 0L284.72 0 284.72-40.5 301.72-40.5 301.72-35.3 292.12-35.3 292.12-23.65 299.67-23.65 299.67-18.5 292.12-18.5 292.12-5.1 301.82-5.1 301.82 0ZM311.02 0L304.07 0 312.17-40.5 320.07-40.5 328.17 0 321.32 0 319.72-9.35 312.67-9.35 311.02 0ZM316.17-31.05L313.42-14.05 318.92-14.05 316.17-31.05ZM339.42 0L332.02 0 332.02-40.5 341.72-40.5Q345.82-40.5 348.64-39.53 351.47-38.55 352.94-36.2 354.42-33.85 354.42-29.8L354.42-29.8Q354.42-27.35 353.97-25.4 353.52-23.45 352.44-22.08 351.37-20.7 349.47-19.95L349.47-19.95 355.12 0 347.72 0 342.82-18.55 339.42-18.55 339.42 0ZM339.42-35.45L339.42-23.2 341.72-23.2Q343.87-23.2 345.14-23.83 346.42-24.45 346.97-25.83 347.52-27.2 347.52-29.35L347.52-29.35Q347.52-32.4 346.39-33.93 345.27-35.45 342.12-35.45L342.12-35.45 339.42-35.45ZM366.26 0L359.96 0 359.96-40.5 365.11-40.5 374.96-17.4 374.96-40.5 381.06-40.5 381.06 0 376.16 0 366.26-24.2 366.26 0ZM394.71 0L387.41 0 387.41-40.5 394.71-40.5 394.71 0ZM407.26 0L400.96 0 400.96-40.5 406.11-40.5 415.96-17.4 415.96-40.5 422.06-40.5 422.06 0 417.16 0 407.26-24.2 407.26 0ZM438.36 0.55L438.36 0.55Q434.36 0.55 432.01-1.15 429.66-2.85 428.63-5.98 427.61-9.1 427.61-13.35L427.61-13.35 427.61-26.95Q427.61-31.3 428.61-34.45 429.61-37.6 432.13-39.28 434.66-40.95 439.11-40.95L439.11-40.95Q443.26-40.95 445.71-39.55 448.16-38.15 449.23-35.52 450.31-32.9 450.31-29.15L450.31-29.15 450.31-27.05 443.26-27.05 443.26-29.35Q443.26-31.3 442.98-32.7 442.71-34.1 441.88-34.83 441.06-35.55 439.21-35.55L439.21-35.55Q437.26-35.55 436.38-34.6 435.51-33.65 435.28-32.1 435.06-30.55 435.06-28.7L435.06-28.7 435.06-11.75Q435.06-9.65 435.41-8.1 435.76-6.55 436.71-5.73 437.66-4.9 439.41-4.9L439.41-4.9Q441.21-4.9 442.16-5.8 443.11-6.7 443.48-8.3 443.86-9.9 443.86-12.1L443.86-12.1 443.86-15.9 439.51-15.9 439.51-20.55 450.51-20.55 450.51 0 445.76 0 445.21-4Q444.41-2 442.78-0.73 441.16 0.55 438.36 0.55Z" opacity="1" transform="matrix(1,0,0,1,0,0)" fill="#0080ff" class="undefined-text-0" data-fill-palette-color="primary" id="text-0"></path></svg></g></svg></g><g transform="matrix(1,0,0,1,0,45.27795213139923)"><svg viewBox="0 0 103.91279928587367 22.637584110689573" height="22.637584110689573" width="103.91279928587367"><g transform="matrix(1,0,0,1,0,0)"><svg width="103.91279928587367" viewBox="3.05 -35.5 165.23 36" height="22.637584110689573" data-palette-color="#0080ff"><path d="M15.1 0L3.05 0 3.05-34.4Q3.05-34.4 3.15-34.7 3.25-35 3.7-35L3.7-35 15.65-35Q15.65-34.1 15.63-33.65 15.6-33.2 15.5-33.05 15.4-32.9 15.15-32.9L15.15-32.9 5.3-32.9 5.3-2.1 15.65-2.1Q15.65-1.15 15.6-0.7 15.55-0.25 15.45-0.13 15.35 0 15.1 0L15.1 0ZM14.05-18.05L3.75-18.05 3.75-20.2 14.55-20.2Q14.55-18.9 14.5-18.48 14.45-18.05 14.05-18.05L14.05-18.05ZM26.15 0L20.15 0 20.15-34.15Q20.15-34.55 20.4-34.77 20.65-35 21.4-35L21.4-35 26.4-35Q28.8-35 30.62-34.15 32.45-33.3 33.67-31.45 34.9-29.6 35.52-26.63 36.15-23.65 36.15-19.35L36.15-19.35Q36.15-13.3 35.37-9.5 34.6-5.7 33.2-3.63 31.8-1.55 30-0.78 28.2 0 26.15 0L26.15 0ZM22.4-32.85L22.4-2.2 26.15-2.2Q27.6-2.2 28.95-2.78 30.3-3.35 31.35-5.15 32.4-6.95 33.05-10.38 33.7-13.8 33.7-19.5L33.7-19.5Q33.7-23.1 33.25-25.65 32.8-28.2 31.9-29.8 31-31.4 29.6-32.13 28.2-32.85 26.3-32.85L26.3-32.85 22.4-32.85ZM50.1 0.5L50.1 0.5Q47 0.5 45.2-0.43 43.4-1.35 42.5-2.95 41.6-4.55 41.32-6.6 41.05-8.65 41.05-10.95L41.05-10.95 41.05-34.35Q41.05-34.7 41.15-34.83 41.25-34.95 41.72-34.98 42.2-35 43.35-35L43.35-35 43.35-10.9Q43.35-9.05 43.55-7.38 43.75-5.7 44.45-4.4 45.15-3.1 46.5-2.38 47.85-1.65 50.1-1.65L50.1-1.65Q51.95-1.65 53.67-2.02 55.4-2.4 56.2-2.8L56.2-2.8 56.2-34.4Q56.2-34.75 56.32-34.85 56.45-34.95 56.92-34.98 57.4-35 58.5-35L58.5-35 58.5-1.2Q57.5-0.55 55.15-0.03 52.8 0.5 50.1 0.5ZM71.79 0.45L71.79 0.45Q70.64 0.45 69.49 0.23 68.34 0 67.27-0.85 66.19-1.7 65.34-3.45 64.49-5.2 63.99-8.18 63.49-11.15 63.49-15.75L63.49-15.75Q63.49-21.1 64.07-24.68 64.64-28.25 65.62-30.4 66.59-32.55 67.84-33.65 69.09-34.75 70.47-35.1 71.84-35.45 73.14-35.45L73.14-35.45Q74.74-35.45 75.77-35.05 76.79-34.65 77.29-34.08 77.79-33.5 77.79-33L77.79-33Q77.79-32.6 77.67-32.2 77.54-31.8 77.34-31.6L77.34-31.6Q77.14-31.8 76.59-32.18 76.04-32.55 75.22-32.9 74.39-33.25 73.39-33.25L73.39-33.25Q72.29-33.25 71.22-32.93 70.14-32.6 69.19-31.6 68.24-30.6 67.49-28.68 66.74-26.75 66.32-23.58 65.89-20.4 65.89-15.65L65.89-15.65Q65.89-11.2 66.42-8.47 66.94-5.75 67.84-4.35 68.74-2.95 69.87-2.48 70.99-2 72.14-2L72.14-2Q73.94-2 75.44-2.83 76.94-3.65 77.59-4.45L77.59-4.45Q77.74-4.15 77.89-3.78 78.04-3.4 78.04-2.95L78.04-2.95Q78.04-2.3 77.22-1.48 76.39-0.65 74.99-0.1 73.59 0.45 71.79 0.45ZM81.39 0.05L81.39 0.05Q81.19 0.05 80.82 0.05 80.44 0.05 79.99 0L79.99 0 89.59-34.9Q89.64-35.2 90.34-35.2L90.34-35.2Q90.59-35.2 90.87-35.18 91.14-35.15 91.29-35.1L91.29-35.1 100.94-0.6Q101.04-0.25 100.87-0.1 100.69 0.05 100.04 0.05L100.04 0.05Q99.79 0.05 99.44 0.05 99.09 0.05 98.64 0L98.64 0 92.74-22.1Q92.19-24.2 91.72-26.15 91.24-28.1 90.89-29.65 90.54-31.2 90.49-31.95L90.49-31.95Q90.39-31.2 90.07-29.65 89.74-28.1 89.27-26.15 88.79-24.2 88.19-22.1L88.19-22.1 82.54-0.45Q82.44-0.15 82.22-0.05 81.99 0.05 81.39 0.05ZM97.19-9.95L84.49-9.95 84.49-12.1 97.19-12.1 97.19-9.95ZM107.04 0L107.04 0 107.04-34.25Q107.04-34.25 107.11-34.43 107.19-34.6 107.64-34.6L107.64-34.6 108.69-34.6Q109.14-34.6 109.21-34.43 109.29-34.25 109.29-34.25L109.29-34.25 109.29-0.6Q109.29-0.3 109.19-0.18 109.09-0.05 108.61-0.03 108.14 0 107.04 0ZM116.44-32.85L99.44-32.85 99.44-34.4Q99.44-35 100.09-35L100.09-35 117.09-35 117.09-33.45Q117.09-33.15 116.94-33 116.79-32.85 116.44-32.85L116.44-32.85ZM120.34 0L120.34 0 120.34-33.8Q120.34-34.4 120.44-34.65 120.54-34.9 121.04-34.95 121.54-35 122.64-35L122.64-35 122.64-0.6Q122.64-0.3 122.54-0.18 122.44-0.05 121.96-0.03 121.49 0 120.34 0ZM136.73 0.5L136.73 0.5Q134.33 0.5 132.61-0.4 130.88-1.3 129.78-3.38 128.68-5.45 128.16-8.97 127.63-12.5 127.63-17.75L127.63-17.75Q127.63-24.2 128.68-28.1 129.73-32 131.88-33.75 134.03-35.5 137.28-35.5L137.28-35.5Q139.68-35.5 141.38-34.58 143.08-33.65 144.13-31.58 145.18-29.5 145.66-26.13 146.13-22.75 146.13-17.8L146.13-17.8Q146.13-11.1 145.16-7.1 144.18-3.1 142.11-1.3 140.03 0.5 136.73 0.5ZM136.78-1.8L136.78-1.8Q139.28-1.8 140.78-3.35 142.28-4.9 143.01-8.43 143.73-11.95 143.73-17.85L143.73-17.85Q143.73-23.6 143.08-26.95 142.43-30.3 141.01-31.75 139.58-33.2 137.23-33.2L137.23-33.2Q134.78-33.2 133.21-31.65 131.63-30.1 130.86-26.55 130.08-23 130.08-17L130.08-17Q130.08-11.45 130.76-8.13 131.43-4.8 132.91-3.3 134.38-1.8 136.78-1.8ZM167.63 0L166.13 0 159.88-14.15Q159.78-14.45 159.21-15.85 158.63-17.25 157.78-19.3 156.93-21.35 156.03-23.55 155.13-25.75 154.33-27.7 153.53-29.65 153.03-30.85 152.53-32.05 152.53-32.05L152.53-32.05 151.43-33.6 151.73-35 153.28-35 159.38-21.1Q159.48-20.8 160.06-19.4 160.63-18 161.46-16 162.28-14 163.18-11.85 164.08-9.7 164.86-7.8 165.63-5.9 166.13-4.73 166.63-3.55 166.63-3.55L166.63-3.55 167.98-1.4 167.63 0ZM151.13 0L151.13 0 151.13-34.4Q151.13-35 151.73-35L151.73-35 153.38-34.4 153.18-31.55Q153.23-31.3 153.26-29.9 153.28-28.5 153.31-26.48 153.33-24.45 153.33-22.18 153.33-19.9 153.36-17.88 153.38-15.85 153.38-14.48 153.38-13.1 153.38-12.9L153.38-12.9 153.38-0.6Q153.38-0.3 153.28-0.18 153.18-0.05 152.71-0.03 152.23 0 151.13 0ZM167.63 0L167.63 0 166.03-0.6 166.18-3.95Q166.13-4.2 166.11-5.6 166.08-7 166.08-9.03 166.08-11.05 166.06-13.28 166.03-15.5 166.03-17.53 166.03-19.55 166.03-20.9 166.03-22.25 166.03-22.45L166.03-22.45 166.03-34.4Q166.03-34.7 166.11-34.83 166.18-34.95 166.66-34.98 167.13-35 168.28-35L168.28-35 168.28-0.6Q168.28 0 167.63 0Z" opacity="1" transform="matrix(1,0,0,1,0,0)" fill="#0080ff" class="undefined-text-1" data-fill-palette-color="secondary" id="text-1"></path></svg></g></svg></g></svg></g></svg></g><g><svg viewBox="0 0 145.0508135741216 93.85927108656674" height="93.85927108656674" width="145.0508135741216"><g><svg xmlns="http://www.w3.org/2000/svg" xmlns:xlink="http://www.w3.org/1999/xlink" version="1.1" x="0" y="0" viewBox="0 0.0003638595536321343 100.00120615455 64.70863614044637" enable-background="new 0 0 100.001 64.709" xml:space="preserve" width="145.0508135741216" height="93.85927108656674" class="icon-icon-0" data-fill-palette-color="accent" id="icon-0"><g fill="#0080ff" data-fill-palette-color="accent"><path d="M33.881 30.267c-9.948-4.121-18.685-4.492-26.707-1.159L6.68 27.891c8.359-3.463 17.436-3.079 27.709 1.166L33.881 30.267z" fill="#0080ff" data-fill-palette-color="accent"></path></g><g fill="#0080ff" data-fill-palette-color="accent"><path d="M34.389 37.013c-10.261-4.239-19.35-4.623-27.709-1.166l0.495 1.211c8.047-3.32 16.771-2.942 26.707 1.166L34.389 37.013z" fill="#0080ff" data-fill-palette-color="accent"></path></g><g fill="#0080ff" data-fill-palette-color="accent"><path d="M34.389 21.1c-10.261-4.238-19.35-4.623-27.709-1.172l0.495 1.218c8.047-3.327 16.771-2.95 26.707 1.166L34.389 21.1z" fill="#0080ff" data-fill-palette-color="accent"></path></g><path d="M78.648 36.798v22.006C60.184 47.11 44.22 57.82 44.22 59.649V20.684c0-6.921 9.154-10.658 20.431-10.658 3.112 0 6.028 0.469 8.659 1.23l3.802-3.802c-18.894-5.782-33.399 2.76-35.392 4.603C38.868 9.296 22.461-0.268 0 9.485c0 0.15 0 2.845 0 6.966v46.532h34.128c1.172 1.009 3.945 1.726 7.188 1.726 3.242 0 6.016-0.717 7.201-1.726h34.116V32.807L78.648 36.798zM38.673 59.649c0-1.829-15.977-12.539-34.415-0.846V13.431c3.646-2.109 8.568-3.405 13.985-3.405 11.276 0 20.43 3.737 20.43 10.658V59.649z" fill="#0080ff" data-fill-palette-color="accent"></path><path d="M46.811 29.056l0.495 1.211c3.919-1.627 7.956-2.506 11.927-2.975l0.573-1.38C55.483 26.348 51.082 27.292 46.811 29.056z" fill="#0080ff" data-fill-palette-color="accent"></path><path d="M46.811 37.013l0.495 1.211c2.799-1.152 5.651-1.947 8.516-2.514l0.56-1.394C53.179 34.896 49.949 35.717 46.811 37.013z" fill="#0080ff" data-fill-palette-color="accent"></path><path d="M46.811 21.1l0.495 1.211c6.016-2.487 12.292-3.47 18.177-3.223l1.237-1.237C60.314 17.396 53.4 18.373 46.811 21.1z" fill="#0080ff" data-fill-palette-color="accent"></path><path d="M99.417 8.118l-7.526-7.526c-1.028-1.042-3.099-0.67-4.583 0.82l-24.22 24.226-2.553 6.23c-0.572 1.413-1.38 3.438-2.083 5.15-0.195 0.476-0.417 1.022-0.586 1.406l-1.185 2.949c-0.742 1.811 0.143 2.683 1.939 1.96l2.956-1.211c0.378-0.156 0.938-0.378 1.406-0.573 1.719-0.689 3.725-1.517 5.156-2.083l6.225-2.546 24.232-24.226C100.081 11.21 100.446 9.153 99.417 8.118zM67.385 37.579l-3.919 1.595-2.631-2.637 0.781-1.928 0.808-1.972 1.38-3.412 6.967 6.973L67.385 37.579z" fill="#0080ff" data-fill-palette-color="accent"></path></svg></g></svg></g></svg></g><defs></defs></svg><rect width="395.52" height="67.59282078009545" fill="none" stroke="none" visibility="hidden"></rect></g></svg></g></svg>