<svg xmlns="http://www.w3.org/2000/svg" version="1.1" xmlns:xlink="http://www.w3.org/1999/xlink" xmlns:svgjs="http://svgjs.dev/svgjs" width="1000" height="351" viewBox="0 0 1000 351"><g transform="matrix(1,0,0,1,-0.6060606060606233,-0.543815587487785)"><svg viewBox="0 0 396 139" data-background-color="#f9f9f9" preserveAspectRatio="xMidYMid meet" height="351" width="1000" xmlns="http://www.w3.org/2000/svg" xmlns:xlink="http://www.w3.org/1999/xlink"><g id="tight-bounds" transform="matrix(1,0,0,1,0.2400000000000091,0.2153571699737995)"><svg viewBox="0 0 395.52 138.5692856600524" height="138.5692856600524" width="395.52"><g><svg viewBox="0 0 657.4380383903483 230.33151129019186" height="138.5692856600524" width="395.52"><g><rect width="5.249667829053066" height="230.33151129019186" x="242.92578462136572" y="0" fill="#ff5c0b" opacity="1" stroke-width="0" stroke="transparent" fill-opacity="1" class="rect-in-0" data-fill-palette-color="primary" rx="1%" id="in-0" data-palette-color="#ff5c0b"></rect></g><g transform="matrix(1,0,0,1,261.9180383903483,0.5729639584333057)"><svg viewBox="0 0 395.52 229.18558337332524" height="229.18558337332524" width="395.52"><g><svg viewBox="0 0 395.52 229.18558337332524" height="229.18558337332524" width="395.52"><g><svg viewBox="0 0 395.52 188.91541057579317" height="188.91541057579317" width="395.52"><g transform="matrix(1,0,0,1,0,0)"><svg width="395.52" viewBox="2.910000000000002 -36.209999999999994 250.9 116.08999999999999" height="188.91541057579317" data-palette-color="#ff5c0b"><svg></svg><svg></svg><svg></svg><g class="undefined-text-0" data-fill-palette-color="primary" id="text-0"><path d="M18.04-13.75v-6.29h14.16v18.5c-2.293 0.747-4.453 1.273-6.48 1.58-2.027 0.3-4.097 0.45-6.21 0.45v0c-5.387 0-9.5-1.583-12.34-4.75-2.84-3.167-4.26-7.713-4.26-13.64v0c0-5.76 1.647-10.25 4.94-13.47 3.293-3.227 7.863-4.84 13.71-4.84v0c3.66 0 7.19 0.733 10.59 2.2v0l-2.51 6.06c-2.607-1.307-5.317-1.96-8.13-1.96v0c-3.273 0-5.893 1.1-7.86 3.3-1.973 2.193-2.96 5.147-2.96 8.86v0c0 3.873 0.793 6.833 2.38 8.88 1.587 2.04 3.897 3.06 6.93 3.06v0c1.573 0 3.173-0.163 4.8-0.49v0-7.45zM70.7 0h-8.15l-2.59-8.5h-13.01l-2.59 8.5h-8.15l12.59-35.84h9.26zM48.85-14.84h9.3c-2.387-7.7-3.733-12.057-4.04-13.07-0.3-1.007-0.513-1.803-0.64-2.39v0c-0.54 2.087-2.08 7.24-4.62 15.46zM97.24 0h-6.93l-8.6-28h-0.22c0.313 5.693 0.47 9.493 0.47 11.4v0 16.6h-6.76v-35.69h10.3l8.45 27.29h0.14l8.96-27.29h10.3v35.69h-7.05v-16.89c0-0.8 0.013-1.72 0.04-2.76 0.02-1.047 0.13-3.813 0.33-8.3v0h-0.22zM142.9-6.25v6.25h-20.56v-35.69h20.56v6.2h-12.99v7.83h12.08v6.21h-12.08v9.2z" fill="#ff5c0b" fill-rule="nonzero" stroke="none" stroke-width="1" stroke-linecap="butt" stroke-linejoin="miter" stroke-miterlimit="10" stroke-dasharray="" stroke-dashoffset="0" font-family="none" font-weight="none" font-size="none" text-anchor="none" style="mix-blend-mode: normal" data-fill-palette-color="primary" opacity="1"></path><path transform="translate(0,39.69)" d="M4.49 0v-35.69h11.11c5.06 0 8.733 0.72 11.02 2.16 2.287 1.44 3.43 3.73 3.43 6.87v0c0 2.133-0.5 3.883-1.5 5.25-1 1.367-2.33 2.187-3.99 2.46v0 0.25c2.26 0.507 3.893 1.45 4.9 2.83 1 1.387 1.5 3.227 1.5 5.52v0c0 3.253-1.177 5.793-3.53 7.62-2.353 1.82-5.547 2.73-9.58 2.73v0zM12.06-29.49v7.93h4.4c2.047 0 3.53-0.317 4.45-0.95 0.92-0.633 1.38-1.683 1.38-3.15v0c0-1.367-0.5-2.347-1.5-2.94-1-0.593-2.583-0.89-4.75-0.89v0zM16.75-15.55h-4.69v9.3h4.93c2.087 0 3.627-0.4 4.62-1.2 0.993-0.793 1.49-2.013 1.49-3.66v0c0-2.96-2.117-4.44-6.35-4.44zM68.09 0h-8.15l-2.59-8.5h-13.01l-2.59 8.5h-8.16l12.6-35.84h9.25zM46.24-14.84h9.3c-2.393-7.7-3.74-12.057-4.04-13.07-0.3-1.007-0.517-1.803-0.65-2.39v0c-0.533 2.087-2.07 7.24-4.61 15.46zM93.65-9.91v0c0 3.22-1.16 5.76-3.48 7.62-2.32 1.853-5.547 2.78-9.68 2.78v0c-3.807 0-7.173-0.717-10.1-2.15v0-7.03c2.407 1.073 4.443 1.83 6.11 2.27 1.667 0.44 3.193 0.66 4.58 0.66v0c1.66 0 2.933-0.317 3.82-0.95 0.887-0.64 1.33-1.587 1.33-2.84v0c0-0.7-0.197-1.32-0.59-1.86-0.387-0.547-0.96-1.073-1.72-1.58-0.753-0.507-2.293-1.313-4.62-2.42v0c-2.18-1.02-3.817-2.003-4.91-2.95-1.093-0.947-1.963-2.047-2.61-3.3-0.653-1.253-0.98-2.717-0.98-4.39v0c0-3.16 1.07-5.643 3.21-7.45 2.14-1.807 5.1-2.71 8.88-2.71v0c1.853 0 3.623 0.22 5.31 0.66 1.68 0.44 3.44 1.06 5.28 1.86v0l-2.44 5.88c-1.907-0.78-3.48-1.323-4.72-1.63-1.247-0.313-2.473-0.47-3.68-0.47v0c-1.433 0-2.53 0.333-3.29 1-0.767 0.667-1.15 1.54-1.15 2.62v0c0 0.667 0.153 1.247 0.46 1.74 0.313 0.5 0.807 0.98 1.48 1.44 0.673 0.467 2.273 1.3 4.8 2.5v0c3.333 1.6 5.62 3.2 6.86 4.8 1.233 1.607 1.85 3.573 1.85 5.9zM120.68-6.25v6.25h-20.56v-35.69h20.56v6.2h-12.99v7.83h12.09v6.21h-12.09v9.2zM157.74-18.19v0c0 5.873-1.673 10.373-5.02 13.5-3.34 3.127-8.17 4.69-14.49 4.69v0h-10.1v-35.69h11.2c5.827 0 10.353 1.537 13.58 4.61 3.22 3.08 4.83 7.377 4.83 12.89zM149.88-17.99v0c0-7.667-3.387-11.5-10.16-11.5v0h-4.03v23.24h3.25c7.293 0 10.94-3.913 10.94-11.74z" fill="#ff5c0b" fill-rule="nonzero" stroke="none" stroke-width="1" stroke-linecap="butt" stroke-linejoin="miter" stroke-miterlimit="10" stroke-dasharray="" stroke-dashoffset="0" font-family="none" font-weight="none" font-size="none" text-anchor="none" style="mix-blend-mode: normal" data-fill-palette-color="primary" opacity="1"></path><path transform="translate(0,79.39)" d="M26.54 0h-22.05v-35.69h7.57v29.44h14.48zM53.3-6.25v6.25h-20.56v-35.69h20.56v6.2h-12.99v7.83h12.08v6.21h-12.08v9.2zM90.75 0h-8.16l-2.59-8.5h-13.01l-2.59 8.5h-8.15l12.6-35.84h9.25zM68.9-14.84h9.3c-2.393-7.7-3.74-12.057-4.04-13.07-0.3-1.007-0.517-1.803-0.65-2.39v0c-0.533 2.087-2.07 7.24-4.61 15.46zM102.81-29.49v9.64h2.44c2.393 0 4.16-0.397 5.3-1.19 1.14-0.8 1.71-2.053 1.71-3.76v0c0-1.693-0.583-2.9-1.75-3.62-1.167-0.713-2.97-1.07-5.41-1.07v0zM106.84-13.7h-4.03v13.7h-7.57v-35.69h10.4c4.853 0 8.443 0.883 10.77 2.65 2.327 1.76 3.49 4.44 3.49 8.04v0c0 2.1-0.58 3.967-1.74 5.6-1.153 1.64-2.787 2.923-4.9 3.85v0c5.367 8.02 8.863 13.203 10.49 15.55v0h-8.39zM159.91-35.69v35.69h-9.62l-15.52-27h-0.22c0.307 4.767 0.46 8.167 0.46 10.2v0 16.8h-6.76v-35.69h9.54l15.51 26.73h0.17c-0.247-4.64-0.37-7.92-0.37-9.84v0-16.89zM176.46 0h-7.56v-35.69h7.56zM217.11-35.69v35.69h-9.61l-15.53-27h-0.22c0.307 4.767 0.46 8.167 0.46 10.2v0 16.8h-6.76v-35.69h9.55l15.5 26.73h0.17c-0.247-4.64-0.37-7.92-0.37-9.84v0-16.89zM239.65-13.75v-6.29h14.16v18.5c-2.293 0.747-4.453 1.273-6.48 1.58-2.027 0.3-4.1 0.45-6.22 0.45v0c-5.387 0-9.5-1.583-12.34-4.75-2.84-3.167-4.26-7.713-4.26-13.64v0c0-5.76 1.65-10.25 4.95-13.47 3.293-3.227 7.86-4.84 13.7-4.84v0c3.667 0 7.2 0.733 10.6 2.2v0l-2.51 6.06c-2.607-1.307-5.317-1.96-8.13-1.96v0c-3.273 0-5.897 1.1-7.87 3.3-1.967 2.193-2.95 5.147-2.95 8.86v0c0 3.873 0.793 6.833 2.38 8.88 1.587 2.04 3.893 3.06 6.92 3.06v0c1.58 0 3.183-0.163 4.81-0.49v0-7.45z" fill="#ff5c0b" fill-rule="nonzero" stroke="none" stroke-width="1" stroke-linecap="butt" stroke-linejoin="miter" stroke-miterlimit="10" stroke-dasharray="" stroke-dashoffset="0" font-family="none" font-weight="none" font-size="none" text-anchor="none" style="mix-blend-mode: normal" data-fill-palette-color="primary" opacity="1"></path></g></svg></g></svg></g><g transform="matrix(1,0,0,1,0,202.65799651572266)"><svg viewBox="0 0 232.20979199999996 26.52758685760257" height="26.52758685760257" width="232.20979199999996"><g transform="matrix(1,0,0,1,0,0)"><svg width="232.20979199999996" viewBox="2.95 -35.25 310.73 35.5" height="26.52758685760257" data-palette-color="#ff5c0b"><path d="M29.1-6.15L30.2-4.25Q28.1-2.1 24.55-0.93 21 0.25 16.7 0.25L16.7 0.25Q12.25 0.25 9.18-0.98 6.1-2.2 4.53-4.38 2.95-6.55 2.95-9.35L2.95-9.35Q2.95-12.65 4.95-14.85 6.95-17.05 10.35-17.85L10.35-17.85Q7.55-18.7 6-20.8 4.45-22.9 4.45-25.85L4.45-25.85Q4.45-28.5 5.93-30.63 7.4-32.75 10.33-34 13.25-35.25 17.45-35.25L17.45-35.25Q20.6-35.25 23.55-34.5 26.5-33.75 28.6-32.35L28.6-32.35 27.75-30.3Q23.15-33 17.55-33L17.55-33Q12.45-33 9.75-30.98 7.05-28.95 7.05-25.7L7.05-25.7Q7.05-22.45 9.33-20.68 11.6-18.9 15.65-18.9L15.65-18.9 24.15-18.9 24.15-16.6 15.55-16.6Q10.95-16.6 8.25-14.8 5.55-13 5.55-9.5L5.55-9.5Q5.55-6.05 8.4-4.03 11.25-2 16.8-2L16.8-2Q20.65-2 23.88-3.1 27.1-4.2 29.1-6.15L29.1-6.15ZM37.4 0L37.4-35 51.25-35Q56.7-35 60.92-32.75 65.15-30.5 67.5-26.53 69.85-22.55 69.85-17.5L69.85-17.5Q69.85-12.45 67.5-8.47 65.15-4.5 60.92-2.25 56.7 0 51.25 0L51.25 0 37.4 0ZM39.95-2.3L51.05-2.3Q55.9-2.3 59.6-4.23 63.3-6.15 65.3-9.6 67.3-13.05 67.3-17.5L67.3-17.5Q67.3-21.95 65.3-25.4 63.3-28.85 59.6-30.78 55.9-32.7 51.05-32.7L51.05-32.7 39.95-32.7 39.95-2.3ZM103.69-35L106.25-35 106.25 0 103.75 0 103.75-6.7Q102.09-3.25 99.05-1.5 96 0.25 91.75 0.25L91.75 0.25Q85.5 0.25 81.94-3.45 78.39-7.15 78.39-14.05L78.39-14.05 78.39-35 80.94-35 80.94-14.15Q80.94-8.25 83.87-5.18 86.8-2.1 92.14-2.1L92.14-2.1Q97.64-2.1 100.67-5.35 103.69-8.6 103.69-15.05L103.69-15.05 103.69-35ZM133.24 0.25Q128.09 0.25 123.97-2.05 119.84-4.35 117.47-8.4 115.09-12.45 115.09-17.5L115.09-17.5Q115.09-22.55 117.47-26.6 119.84-30.65 123.97-32.95 128.09-35.25 133.24-35.25L133.24-35.25Q137.04-35.25 140.24-34.02 143.44-32.8 145.69-30.4L145.69-30.4 144.09-28.75Q139.89-32.9 133.34-32.9L133.34-32.9Q128.94-32.9 125.34-30.9 121.74-28.9 119.69-25.38 117.64-21.85 117.64-17.5L117.64-17.5Q117.64-13.15 119.69-9.63 121.74-6.1 125.34-4.1 128.94-2.1 133.34-2.1L133.34-2.1Q139.84-2.1 144.09-6.3L144.09-6.3 145.69-4.65Q143.44-2.25 140.22-1 136.99 0.25 133.24 0.25L133.24 0.25ZM168.19-35.25Q174.84-35.25 178.64-31.35 182.44-27.45 182.44-20.05L182.44-20.05 182.44 0 179.89 0 179.89-10.8 156.49-10.8 156.49 0 153.94 0 153.94-20.05Q153.94-27.45 157.77-31.35 161.59-35.25 168.19-35.25L168.19-35.25ZM156.49-13.1L179.89-13.1 179.89-20.3Q179.89-26.5 176.82-29.7 173.74-32.9 168.19-32.9L168.19-32.9Q162.64-32.9 159.57-29.7 156.49-26.5 156.49-20.3L156.49-20.3 156.49-13.1ZM216.09-31.5L215.09-29.45Q209.84-32.55 203.24-32.9L203.24-32.9 203.24 0 200.64 0 200.64-32.9Q194.29-32.65 188.79-29.45L188.79-29.45 187.79-31.5Q194.19-35.25 201.89-35.25L201.89-35.25Q209.69-35.25 216.09-31.5L216.09-31.5ZM235.64-32.7L228.29-32.7 228.29-2.3 235.64-2.3 235.64 0 218.39 0 218.39-2.3 225.74-2.3 225.74-32.7 218.39-32.7 218.39-35 235.64-35 235.64-32.7ZM258.58 0.25Q253.43 0.25 249.28-2.08 245.13-4.4 242.76-8.45 240.38-12.5 240.38-17.5L240.38-17.5Q240.38-22.5 242.76-26.55 245.13-30.6 249.28-32.93 253.43-35.25 258.58-35.25L258.58-35.25Q263.73-35.25 267.88-32.95 272.03-30.65 274.41-26.6 276.78-22.55 276.78-17.5L276.78-17.5Q276.78-12.45 274.41-8.4 272.03-4.35 267.88-2.05 263.73 0.25 258.58 0.25L258.58 0.25ZM258.58-2.1Q262.98-2.1 266.53-4.1 270.08-6.1 272.13-9.63 274.18-13.15 274.18-17.5L274.18-17.5Q274.18-21.85 272.13-25.38 270.08-28.9 266.53-30.9 262.98-32.9 258.58-32.9L258.58-32.9Q254.18-32.9 250.61-30.9 247.03-28.9 244.98-25.38 242.93-21.85 242.93-17.5L242.93-17.5Q242.93-13.15 244.98-9.63 247.03-6.1 250.61-4.1 254.18-2.1 258.58-2.1L258.58-2.1ZM300.28-35.25Q306.58-35.25 310.13-31.55 313.68-27.85 313.68-20.95L313.68-20.95 313.68 0 311.13 0 311.13-20.85Q311.13-26.75 308.18-29.83 305.23-32.9 299.83-32.9L299.83-32.9Q294.28-32.9 291.23-29.65 288.18-26.4 288.18-19.95L288.18-19.95 288.18 0 285.63 0 285.63-35 288.13-35 288.13-28.25Q289.73-31.75 292.83-33.5 295.93-35.25 300.28-35.25L300.28-35.25Z" opacity="1" transform="matrix(1,0,0,1,0,0)" fill="#ff5c0b" class="undefined-text-1" data-fill-palette-color="secondary" id="text-1"></path></svg></g></svg></g></svg></g></svg></g><g transform="matrix(1,0,0,1,0,0.5729639584333199)"><svg viewBox="0 0 229.18319868143624 229.18558337332522" height="229.18558337332522" width="229.18319868143624"><g><svg xmlns="http://www.w3.org/2000/svg" xmlns:xlink="http://www.w3.org/1999/xlink" version="1.1" x="0" y="0" viewBox="1.947 1.947 96.106 96.107" enable-background="new 0 0 100 100" xml:space="preserve" height="229.18558337332522" width="229.18319868143624" class="icon-icon-0" data-fill-palette-color="accent" id="icon-0"><path d="M98.053 7.954V1.947H70.021h-6.006v6.007 6.007 6.006 8.009 6.007 2.001H54.004V5.951h-8.008v30.033H35.984v-2.001-6.007-8.009-6.006V7.954 1.947h-6.006H1.947v6.007h28.031v6.007H3.949v6.006h26.029v8.009H3.949v4.004 2.003 32.035 6.006h6.007 6.007 6.006 8.009v8.01H3.949v6.006h26.029v6.008H1.947v6.006h34.037v-0.001-6.005-6.008-6.006-8.01-6.006-2.002h10.012v30.033h8.008V64.016h10.012v2.002 6.006 8.01 6.006 6.008 6.005 0.001h34.037v-6.006H70.021v-6.008h26.029v-6.006H70.021v-8.01h8.01 6.006 6.006 6.008v-6.006V33.983 31.98v-4.004H70.021v-8.009h26.029v-6.006H70.021V7.954H98.053zM64.016 41.991v5.006H35.984v-5.006H64.016zM9.956 66.018V33.983h6.007v32.035H9.956zM29.978 66.018h-8.009V33.983h8.009v2.001 6.007 16.018 6.007V66.018zM35.984 58.009v-5.005h28.032v5.005H35.984zM90.043 66.018h-6.006V33.983h6.006V66.018zM78.031 33.983v32.035h-8.01v-2.002-6.007V41.991v-6.007-2.001H78.031z" fill="#ff5c0b" data-fill-palette-color="accent"></path></svg></g></svg></g></svg></g><defs></defs></svg><rect width="395.52" height="138.5692856600524" fill="none" stroke="none" visibility="hidden"></rect></g></svg></g></svg>