<svg xmlns="http://www.w3.org/2000/svg" xmlns:xlink="http://www.w3.org/1999/xlink" viewBox="0 0 239.83 146.43"><defs><style>.cls-1,.cls-11,.cls-17,.cls-18,.cls-20{fill:none;}.cls-2,.cls-9{fill:#dbedfa;}.cls-3{fill:#8eedd4;}.cls-10,.cls-11,.cls-12,.cls-13,.cls-18,.cls-20,.cls-3,.cls-4,.cls-5,.cls-6,.cls-7,.cls-8,.cls-9{stroke:#696969;}.cls-10,.cls-11,.cls-12,.cls-17,.cls-18,.cls-3,.cls-4,.cls-5,.cls-7,.cls-8,.cls-9{stroke-linecap:round;stroke-linejoin:round;}.cls-10,.cls-11,.cls-12,.cls-13,.cls-17,.cls-20,.cls-3,.cls-4,.cls-5,.cls-6,.cls-7,.cls-8,.cls-9{stroke-width:2px;}.cls-4{fill:#00bd9d;}.cls-5{fill:#36495c;}.cls-6{fill:#eddea8;}.cls-13,.cls-20,.cls-6{stroke-miterlimit:10;}.cls-7{fill:#ff5855;}.cls-8{fill:#f39792;}.cls-10{fill:#e24d4d;}.cls-12{fill:#c9941f;}.cls-13{fill:#fcc648;}.cls-14{clip-path:url(#clip-path);}.cls-15{fill:#fff;}.cls-16{fill:#ededed;}.cls-17{stroke:#999;}.cls-18{stroke-width:1.56px;}.cls-19{fill:#696969;}</style><clipPath id="clip-path"><path class="cls-1" d="M48.8,63.92c-.14.2,25.58,18.53,25.58,18.53a3.49,3.49,0,0,0,3.73,0l25.52-18.6V39.71H47.8Z"/></clipPath></defs><title>Asset 6</title><g id="Layer_2" data-name="Layer 2"><g id="Layer_1-2" data-name="Layer 1"><path class="cls-2" d="M219.49,145.05a105.82,105.82,0,1,0-196.83,0Z"/><path class="cls-3" d="M160.3,46.93h0A24.07,24.07,0,0,1,184.37,71v37.21H101.61V46.93H160.3"/><path class="cls-4" d="M138.62,59.86l-36.77-.09c.27-.33.15-12.67.15-12.67l47.08-.17H160.3A24.07,24.07,0,0,1,184.37,71v37.21s-12.93-.19-12.93.1V75.13a15.27,15.27,0,0,0-15.27-15.27H138.62Z"/><path class="cls-5" d="M101,46.93h0A24.07,24.07,0,0,1,125.08,71v37.21a0,0,0,0,1,0,0H76.94a0,0,0,0,1,0,0V71A24.07,24.07,0,0,1,101,46.93Z"/><rect class="cls-4" x="113.44" y="108.85" width="75.61" height="8.66" rx="3.91" ry="3.91"/><path class="cls-3" d="M60,108.85h58.22a0,0,0,0,1,0,0v4.52a4.14,4.14,0,0,1-4.14,4.14H60a4.14,4.14,0,0,1-4.14-4.14V113A4.14,4.14,0,0,1,60,108.85Z"/><rect class="cls-6" x="128.15" y="117.38" width="14.46" height="28.05"/><rect class="cls-6" x="108.87" y="117.38" width="24.1" height="28.05"/><line class="cls-7" x1="14.53" y1="145.29" x2="225.5" y2="145.29"/><path class="cls-8" d="M142.43,29.31h22.78a3.95,3.95,0,0,1,3.95,3.95V46a3.95,3.95,0,0,1-3.95,3.95H142.43a0,0,0,0,1,0,0V29.31a0,0,0,0,1,0,0Z"/><rect class="cls-6" x="136.47" y="29.31" width="6.57" height="38.99"/><rect class="cls-9" x="136.47" y="59.81" width="6.57" height="9.05"/><line class="cls-10" x1="125.02" y1="68.86" x2="184.3" y2="68.86"/><path class="cls-11" d="M42.75,79.63H38.11a8.43,8.43,0,0,0-8.43,8.43v36.27a8.42,8.42,0,0,0,8.43,8.43h63.25"/><line class="cls-11" x1="146.48" y1="133.18" x2="184.86" y2="133.18"/><line class="cls-11" x1="189.92" y1="133.18" x2="198.35" y2="133.18"/><line class="cls-11" x1="230.4" y1="144.99" x2="238.83" y2="144.99"/><line class="cls-11" x1="1" y1="144.99" x2="9.43" y2="144.99"/><path class="cls-12" d="M48.8,63.69a1.2,1.2,0,0,0,1,.55H102.6a1.21,1.21,0,0,0,1-.64c.14-.24-25.57-22.6-25.57-22.6a3,3,0,0,0-3.74,0Z"/><rect class="cls-13" x="48.52" y="63.73" width="55.34" height="31.94" rx="2.03" ry="2.03"/><g class="cls-14"><path class="cls-15" d="M87.32,40.34H55.13A1.68,1.68,0,0,0,53.42,42v50.1a1.68,1.68,0,0,0,1.71,1.65H97.35a1.68,1.68,0,0,0,1.7-1.65V52.45Z"/><path class="cls-11" d="M87.32,40.34H55.13A1.68,1.68,0,0,0,53.42,42v50.1a1.68,1.68,0,0,0,1.71,1.65H97.35a1.68,1.68,0,0,0,1.7-1.65V52.45Z"/><path class="cls-15" d="M87.25,40.39V50.62A1.68,1.68,0,0,0,89,52.27H99.05Z"/><path class="cls-16" d="M87.25,40.39V50.62A1.68,1.68,0,0,0,89,52.27H99.05Z"/><path class="cls-17" d="M87.25,40.39V50.62A1.68,1.68,0,0,0,89,52.27H99.05Z"/><path class="cls-18" d="M87.25,40.39V50.62A1.68,1.68,0,0,0,89,52.27H99.05Z"/><ellipse class="cls-19" cx="86.05" cy="58.31" rx="1.49" ry="1.44"/><ellipse class="cls-19" cx="66.43" cy="58.31" rx="1.49" ry="1.44"/><path class="cls-11" d="M85.45,64c-1.75,2.14-5.16,3.6-9.08,3.6S69,66.09,67.29,64"/></g><path class="cls-20" d="M48.8,63.92c-.14.2,25.58,18.53,25.58,18.53a3.49,3.49,0,0,0,3.73,0l25.52-18.6"/><path class="cls-13" d="M48.8,95.56a1.28,1.28,0,0,0,1,.45H102.6a1.25,1.25,0,0,0,1-.53C103.77,95.29,78.06,77,78.06,77a3.51,3.51,0,0,0-3.74,0Z"/></g></g></svg>