<svg width="71" height="49"
    xmlns="http://www.w3.org/2000/svg"
    xmlns:xlink="http://www.w3.org/1999/xlink">
    <defs>
        <path id="a" d="M0 71h71V0H0z"/>
    </defs>
    <g transform="translate(0 -12)" fill="none" fill-rule="evenodd">
        <path d="M61.702 54.095H8.452V15.672c0-.72.588-1.303 1.312-1.303H60.39c.725 0 1.312.584 1.312 1.303v38.423z" fill="#A5A5A5"/>
        <path d="M59.555 12.679H10.6c-2.117 0-3.838 1.711-3.838 3.816V54.16a1.63 1.63 0 0 0 1.635 1.626h53.361a1.63 1.63 0 0 0 1.635-1.626V16.495c0-2.105-1.722-3.816-3.838-3.816m0 1.625c1.217 0 2.203.98 2.203 2.191V54.16H8.397V16.495c0-1.21.986-2.19 2.203-2.19h48.955" fill="#707070"/>
        <path d="M67.845 59.167H2.31c-.342 0-.62-.296-.62-.66v-4.412h66.774v4.412c0 .364-.277.66-.619.66" fill="#E0E0E0"/>
        <path d="M68.517 52.405H1.637c-.904 0-1.637.77-1.637 1.72v3.92c0 1.55 1.2 2.812 2.676 2.812h64.802c1.476 0 2.677-1.262 2.677-2.813v-3.918c0-.95-.733-1.721-1.638-1.721m0 1.72v3.92c0 .602-.465 1.091-1.039 1.091H2.676c-.573 0-1.039-.489-1.039-1.092v-3.918h66.88" fill="#707070"/>
        <path d="M42.343 55.786H27.812c-.423 0-.764-.452-.764-1.009v-.682h16.06v.682c0 .557-.343 1.009-.765 1.009" fill="#E0E0E0"/>
        <path d="M43.165 52.405H26.99c-.902 0-1.633.678-1.633 1.514 0 1.496 1.312 2.712 2.923 2.712h13.595c1.612 0 2.923-1.216 2.923-2.712 0-.836-.731-1.514-1.633-1.514zm0 1.514c0 .66-.578 1.197-1.29 1.197H28.28c-.712 0-1.29-.536-1.29-1.197h16.175z" fill="#707070"/>
        <mask id="b" fill="#fff">
            <use xlink:href="#a"/>
        </mask>
        <path fill="#E3F1F8" mask="url(#b)" d="M12.679 49.024h44.797V18.595H12.68z"/>
        <path d="M13.465 48.236H56.69V19.384H13.465v28.852zm44.041 1.633H12.65a.817.817 0 0 1-.816-.817V18.567c0-.451.366-.817.816-.817h44.857c.45 0 .815.366.815.817v30.485a.816.816 0 0 1-.815.817z" fill="#707070" mask="url(#b)"/>
        <path d="M44.798 34.232a8.875 8.875 0 1 1-17.75 0 8.875 8.875 0 0 1 17.75 0" fill="#F9F9F9" mask="url(#b)"/>
        <path d="M35.922 26.137c-4.463 0-8.094 3.632-8.094 8.095 0 4.464 3.631 8.094 8.094 8.094 4.464 0 8.096-3.63 8.096-8.094 0-4.463-3.632-8.095-8.096-8.095m0 17.815c-5.36 0-9.72-4.36-9.72-9.72s4.36-9.72 9.72-9.72 9.72 4.36 9.72 9.72-4.36 9.72-9.72 9.72" fill="#707070" mask="url(#b)"/>
        <path fill="#F9F9F9" mask="url(#b)" d="M35.5 29.583v4.67l3.381 2.937"/>
        <path d="M38.974 38.036a.72.72 0 0 1-.531-.24l-2.723-2.958a.859.859 0 0 1-.22-.578v-4.705c0-.45.337-.817.752-.817.416 0 .753.366.753.817v4.366l2.5 2.719a.868.868 0 0 1 0 1.156.72.72 0 0 1-.53.24" fill="#707070" mask="url(#b)"/>
    </g>
</svg>
