<svg width="202px" height="120px" viewBox="0 0 202 120" version="1.1" xmlns="http://www.w3.org/2000/svg" xmlns:xlink="http://www.w3.org/1999/xlink">
    <g id="Final-Q4-2018" stroke="none" stroke-width="1" fill="none" fill-rule="evenodd">
        <g id="ParentRocketShip" transform="translate(-87.000000, -226.000000)">
            <g id="Rocketship" transform="translate(88.000000, 227.000000)">
                <path d="M169.361956,112.426756 C172.717511,103.940533 174.563733,94.6898667 174.563733,85.0063111 C174.563733,43.8729778 141.281956,10.5280889 100.227733,10.5280889 C59.1735111,10.5280889 25.8926222,43.8729778 25.8926222,85.0063111 C25.8926222,94.6898667 27.7379556,103.940533 31.0935111,112.426756 L169.361956,112.426756 Z" id="Fill-1" fill="#DBEDFA"></path>
                <g id="Group-6" transform="translate(84.444444, 87.545778)">
                    <path d="M26.276,0.654755556 C26.276,0.654755556 26.4875556,20.7658667 29.8288889,24.9418667 L0.793333333,24.9418667 C0.793333333,24.9418667 5.67688889,11.7854222 5.64222222,0.405866667" id="Fill-3" fill="#FCDEDA"></path>
                    <path d="M26.276,0.654755556 C26.276,0.654755556 26.4875556,20.7658667 29.8288889,24.9418667 L0.793333333,24.9418667 C0.793333333,24.9418667 5.67688889,11.7854222 5.64222222,0.405866667" id="Stroke-5" stroke="#696969" stroke-width="2" stroke-linecap="round" stroke-linejoin="round"></path>
                </g>
                <g id="Group-10" transform="translate(90.666667, 87.545778)">
                    <path d="M14.9140444,0.654755556 C14.9140444,0.654755556 16.0891556,21.6005333 17.7602667,24.9418667 L0.417155556,24.9418667 C0.417155556,24.9418667 3.57982222,12.0992 3.56115556,0.719644444" id="Fill-7" fill="#FEF0D6"></path>
                    <path d="M14.9140444,0.654755556 C14.9140444,0.654755556 16.0891556,21.6005333 17.7602667,24.9418667 L0.417155556,24.9418667 C0.417155556,24.9418667 3.57982222,12.0992 3.56115556,0.719644444" id="Stroke-9" stroke="#696969" stroke-width="2"></path>
                </g>
                <path d="M135.24,50.6351111 C135.24,55.1577778 131.572444,57.676 127.047111,57.676 C122.522667,57.676 118.855111,55.1577778 118.855111,50.6351111 C118.855111,46.1124444 122.522667,31.4146667 127.047111,31.4146667 C131.572444,31.4146667 135.24,46.1124444 135.24,50.6351111" id="Fill-11" fill="#EEEEEE"></path>
                <path d="M135.24,50.6351111 C135.24,55.1577778 131.572444,57.676 127.047111,57.676 C122.522667,57.676 118.855111,55.1577778 118.855111,50.6351111 C118.855111,46.1124444 122.522667,31.4146667 127.047111,31.4146667 C131.572444,31.4146667 135.24,46.1124444 135.24,50.6351111 Z" id="Stroke-13" stroke="#696969" stroke-width="2"></path>
                <g id="Group-18" transform="translate(118.222222, 51.101333)">
                    <polyline id="Fill-15" fill="#EEEEEE" points="0.6328 0.00186666667 0.6328 50.3307556 17.0176889 50.3307556 17.0176889 0.00186666667"></polyline>
                    <polyline id="Stroke-17" stroke="#696969" stroke-width="2" points="0.6328 0.00186666667 0.6328 50.3307556 17.0176889 50.3307556 17.0176889 0.00186666667"></polyline>
                </g>
                <path d="M81.1310222,50.6351111 C81.1310222,55.1577778 77.4634667,57.676 72.9390222,57.676 C68.4136889,57.676 64.7461333,55.1577778 64.7461333,50.6351111 C64.7461333,46.1124444 68.4136889,31.4146667 72.9390222,31.4146667 C77.4634667,31.4146667 81.1310222,46.1124444 81.1310222,50.6351111" id="Fill-19" fill="#EEEEEE"></path>
                <path d="M81.1310222,50.6351111 C81.1310222,55.1577778 77.4634667,57.676 72.9390222,57.676 C68.4136889,57.676 64.7461333,55.1577778 64.7461333,50.6351111 C64.7461333,46.1124444 68.4136889,31.4146667 72.9390222,31.4146667 C77.4634667,31.4146667 81.1310222,46.1124444 81.1310222,50.6351111 Z" id="Stroke-21" stroke="#696969" stroke-width="2"></path>
                <g id="Group-26" transform="translate(64.000000, 51.101333)">
                    <polyline id="Fill-23" fill="#EEEEEE" points="0.746044444 0.00186666667 0.746044444 50.3307556 17.1309333 50.3307556 17.1309333 0.00186666667"></polyline>
                    <polyline id="Stroke-25" stroke="#696969" stroke-width="2" points="0.746044444 0.00186666667 0.746044444 50.3307556 17.1309333 50.3307556 17.1309333 0.00186666667"></polyline>
                </g>
                <path d="M119.0456,30.4342222 C119.0456,18.0857778 110.514933,0.000444444444 99.9931556,0.000444444444 C89.4713778,0.000444444444 80.9407111,18.0857778 80.9407111,30.4342222 C80.9407111,30.4662222 80.9424889,32.8155556 80.9424889,32.8475556 L80.9407111,32.8475556 L80.9407111,101.432444 L119.0456,101.432444 L119.0456,32.8475556 L119.043822,32.8475556 C119.043822,32.8155556 119.0456,30.4662222 119.0456,30.4342222" id="Fill-27" fill="#F49C90"></path>
                <path d="M119.0456,30.4342222 C119.0456,18.0857778 110.514933,0.000444444444 99.9931556,0.000444444444 C89.4713778,0.000444444444 80.9407111,18.0857778 80.9407111,30.4342222 C80.9407111,30.4662222 80.9424889,32.8155556 80.9424889,32.8475556 L80.9407111,32.8475556 L80.9407111,101.432444 L119.0456,101.432444 L119.0456,32.8475556 L119.043822,32.8475556 C119.043822,32.8155556 119.0456,30.4662222 119.0456,30.4342222 Z" id="Stroke-29" stroke="#696969" stroke-width="2"></path>
                <path d="M110.090667,45.4181333 C110.882667,48.3816889 111.548444,51.3772444 112.356444,53.8323556 C114.300444,59.7399111 116.327111,65.6216889 118.394667,71.4865778 C119.555556,74.7781333 121.763556,77.2599111 124.687111,79.1470222 C128.472889,81.5905778 132.303111,83.9763556 135.970667,86.5879111 C139.779556,89.2999111 143.144,92.4785778 144.766222,97.0785778 C146.163556,101.041244 145.898667,101.437689 141.768,101.432356 L110.090667,101.432408 L110.090667,45.4181333 Z" id="Fill-31" fill="#FFFFFF"></path>
                <path d="M110.090667,45.4181333 C110.882667,48.3816889 111.548444,51.3772444 112.356444,53.8323556 C114.300444,59.7399111 116.327111,65.6216889 118.394667,71.4865778 C119.555556,74.7781333 121.763556,77.2599111 124.687111,79.1470222 C128.472889,81.5905778 132.303111,83.9763556 135.970667,86.5879111 C139.779556,89.2999111 143.144,92.4785778 144.766222,97.0785778 C146.163556,101.041244 145.898667,101.437689 141.768,101.432356 L110.090667,101.432408 L110.090667,45.4181333 Z" id="Stroke-33" stroke="#696969" stroke-width="2" stroke-linecap="round" stroke-linejoin="round"></path>
                <path d="M89.8953778,101.432319 L58.2180444,101.432267 C54.0873778,101.4376 53.8224889,101.041156 55.2198222,97.0784889 C56.8420444,92.4793778 60.2064889,89.3007111 64.0153778,86.5887111 C67.6829333,83.9771556 71.5131556,81.5913778 75.2989333,79.1478222 C78.2224889,77.2598222 80.4304889,74.7780444 81.5913778,71.4873778 C83.6589333,65.6216 85.6856,59.7398222 87.6296,53.8322667 C88.4376,51.3780444 89.1033778,48.3816 89.8953778,45.4180444 L89.8953778,101.432319 Z" id="Fill-35" fill="#FFFFFF"></path>
                <path d="M89.8953778,101.432319 L58.2180444,101.432267 C54.0873778,101.4376 53.8224889,101.041156 55.2198222,97.0784889 C56.8420444,92.4793778 60.2064889,89.3007111 64.0153778,86.5887111 C67.6829333,83.9771556 71.5131556,81.5913778 75.2989333,79.1478222 C78.2224889,77.2598222 80.4304889,74.7780444 81.5913778,71.4873778 C83.6589333,65.6216 85.6856,59.7398222 87.6296,53.8322667 C88.4376,51.3780444 89.1033778,48.3816 89.8953778,45.4180444 L89.8953778,101.432319 Z" id="Stroke-37" stroke="#696969" stroke-width="2" stroke-linecap="round" stroke-linejoin="round"></path>
                <path d="M110.471733,31.8954667 C110.471733,37.7665778 105.780178,41.0359111 99.9926222,41.0359111 C94.2059556,41.0359111 89.5144,37.7665778 89.5144,31.8954667 C89.5144,26.0243556 94.2059556,13.2199111 99.9926222,13.2199111 C105.780178,13.2199111 110.471733,26.0243556 110.471733,31.8954667" id="Fill-39" fill="#FFFFFF"></path>
                <path d="M110.471733,31.8954667 C110.471733,37.7665778 105.780178,41.0359111 99.9926222,41.0359111 C94.2059556,41.0359111 89.5144,37.7665778 89.5144,31.8954667 C89.5144,26.0243556 94.2059556,13.2199111 99.9926222,13.2199111 C105.780178,13.2199111 110.471733,26.0243556 110.471733,31.8954667 Z" id="Stroke-41" stroke="#696969" stroke-width="2" stroke-linecap="round" stroke-linejoin="round"></path>
                <g id="Group-46" transform="translate(88.888889, 32.434667)">
                    <polyline id="Fill-43" fill="#FFFFFF" points="0.625422222 0.408977778 0.625422222 68.9974222 21.5827556 68.9974222 21.5827556 0.408977778"></polyline>
                    <polyline id="Stroke-45" stroke="#696969" stroke-width="2" stroke-linecap="round" stroke-linejoin="round" points="0.625422222 0.408977778 0.625422222 68.9974222 21.5827556 68.9974222 21.5827556 0.408977778"></polyline>
                </g>
                <g id="Group-50" transform="translate(95.111111, 21.768000)">
                    <path d="M0.642755556,4.7472 C0.642755556,2.4192 2.52986667,0.532088889 4.85786667,0.532088889 C7.18586667,0.532088889 9.07297778,2.4192 9.07297778,4.7472" id="Fill-47" fill="#FFFFFF"></path>
                    <path d="M0.642755556,4.7472 C0.642755556,2.4192 2.52986667,0.532088889 4.85786667,0.532088889 C7.18586667,0.532088889 9.07297778,2.4192 9.07297778,4.7472" id="Stroke-49" stroke="#696969" stroke-width="2" stroke-linecap="round" stroke-linejoin="round"></path>
                </g>
                <path d="M113.006933,100.733511 L87.4487111,100.733511 L87.4487111,90.4170667 C87.4487111,87.3504 89.9349333,84.8641778 93.0016,84.8641778 L107.454044,84.8641778 C110.520711,84.8641778 113.006933,87.3504 113.006933,90.4170667 L113.006933,100.733511 Z" id="Fill-51" fill="#EEEEEE"></path>
                <path d="M113.006933,100.733511 L87.4487111,100.733511 L87.4487111,90.4170667 C87.4487111,87.3504 89.9349333,84.8641778 93.0016,84.8641778 L107.454044,84.8641778 C110.520711,84.8641778 113.006933,87.3504 113.006933,90.4170667 L113.006933,100.733511 Z" id="Stroke-53" stroke="#696969" stroke-width="2"></path>
                <path d="M88.9523556,104.074489 C87.3372444,104.074489 86.0288,102.766044 86.0288,101.150933 C86.0288,99.5367111 87.3372444,98.2282667 88.9523556,98.2282667 L111.503467,98.2282667 C113.117689,98.2282667 114.427022,99.5367111 114.427022,101.150933 C114.427022,102.766044 113.117689,104.074489 111.503467,104.074489 L88.9523556,104.074489 Z" id="Fill-55" fill="#FED282"></path>
                <path d="M111.503467,104.074489 L88.9523556,104.074489 C87.3372444,104.074489 86.0288,102.766044 86.0288,101.150933 C86.0288,99.5367111 87.3372444,98.2282667 88.9523556,98.2282667 L111.503467,98.2282667 C113.117689,98.2282667 114.427022,99.5367111 114.427022,101.150933 C114.427022,102.766044 113.117689,104.074489 111.503467,104.074489 Z" id="Stroke-57" stroke="#696969" stroke-width="2" stroke-linecap="round" stroke-linejoin="round"></path>
                <path d="M69.6505778,65.6537778 L64.7465778,65.6537778 L64.7465778,53.9604444 L69.6505778,53.9604444 C70.6319111,53.9604444 71.4283556,54.7568889 71.4283556,55.7382222 L71.4283556,63.876 C71.4283556,64.8582222 70.6319111,65.6537778 69.6505778,65.6537778" id="Fill-59" fill="#FED282"></path>
                <path d="M69.6505778,65.6537778 L64.7465778,65.6537778 L64.7465778,53.9604444 L69.6505778,53.9604444 C70.6319111,53.9604444 71.4283556,54.7568889 71.4283556,55.7382222 L71.4283556,63.876 C71.4283556,64.8582222 70.6319111,65.6537778 69.6505778,65.6537778 Z" id="Stroke-61" stroke="#696969" stroke-width="2" stroke-linecap="round" stroke-linejoin="round"></path>
                <path d="M135.24,65.6537778 L130.336,65.6537778 C129.353778,65.6537778 128.558222,64.8582222 128.558222,63.876 L128.558222,55.7382222 C128.558222,54.7568889 129.353778,53.9604444 130.336,53.9604444 L135.24,53.9604444 L135.24,65.6537778 Z" id="Fill-63" fill="#FED282"></path>
                <path d="M135.24,65.6537778 L130.336,65.6537778 C129.353778,65.6537778 128.558222,64.8582222 128.558222,63.876 L128.558222,55.7382222 C128.558222,54.7568889 129.353778,53.9604444 130.336,53.9604444 L135.24,53.9604444 L135.24,65.6537778 Z" id="Stroke-65" stroke="#696969" stroke-width="2" stroke-linecap="round" stroke-linejoin="round"></path>
                <path d="M99.8103111,108.668267 C97.9649778,108.668267 96.4689778,107.172267 96.4689778,105.326933 L96.4689778,84.4469333 C96.4689778,82.6016 97.9649778,81.1056 99.8103111,81.1056 C101.655644,81.1056 103.150756,82.6016 103.150756,84.4469333 L103.150756,105.326933 C103.150756,107.172267 101.655644,108.668267 99.8103111,108.668267" id="Fill-67" fill="#FFFFFF"></path>
                <path d="M99.8103111,108.668267 C97.9649778,108.668267 96.4689778,107.172267 96.4689778,105.326933 L96.4689778,84.4469333 C96.4689778,82.6016 97.9649778,81.1056 99.8103111,81.1056 C101.655644,81.1056 103.150756,82.6016 103.150756,84.4469333 L103.150756,105.326933 C103.150756,107.172267 101.655644,108.668267 99.8103111,108.668267 Z" id="Stroke-69" stroke="#696969" stroke-width="2" stroke-linecap="round" stroke-linejoin="round"></path>
                <g id="Group-74" transform="translate(136.000000, 96.434667)">
                    <path d="M0.1888,15.1533333 C0.1888,7.07066667 6.74168889,0.517777778 14.8243556,0.517777778 C22.9079111,0.517777778 29.4599111,7.90533333 29.4599111,15.9888889" id="Fill-71" fill="#FFFFFF"></path>
                    <path d="M0.1888,15.1533333 C0.1888,7.07066667 6.74168889,0.517777778 14.8243556,0.517777778 C22.9079111,0.517777778 29.4599111,7.90533333 29.4599111,15.9888889" id="Stroke-73" stroke="#696969" stroke-width="2" stroke-linejoin="round"></path>
                </g>
                <g id="Group-78" transform="translate(191.111111, 111.545778)">
                    <path d="M0.719644444,0.781777778 L8.50897778,0.781777778" id="Fill-75" fill="#FFFFFF"></path>
                    <path d="M0.719644444,0.781777778 L8.50897778,0.781777778" id="Stroke-77" stroke="#696969" stroke-width="2" stroke-linecap="round" stroke-linejoin="round"></path>
                </g>
                <g id="Group-82" transform="translate(126.222222, 100.879111)">
                    <path d="M0.0242666667,11.4484444 C0.0242666667,5.18444444 5.10248889,0.105333333 11.3664889,0.105333333 C17.6313778,0.105333333 22.7096,5.18444444 22.7096,11.4484444 L59.3398222,11.4484444" id="Fill-79" fill="#FFFFFF"></path>
                    <path d="M0.0242666667,11.4484444 C0.0242666667,5.18444444 5.10248889,0.105333333 11.3664889,0.105333333 C17.6313778,0.105333333 22.7096,5.18444444 22.7096,11.4484444 L59.3398222,11.4484444" id="Stroke-81" stroke="#696969" stroke-width="2" stroke-linecap="round" stroke-linejoin="round"></path>
                </g>
                <g id="Group-86" transform="translate(31.111111, 95.545778)">
                    <path d="M0.543377778,16.1456889 C0.543377778,7.65857778 7.42337778,0.778577778 15.9113778,0.778577778 C23.9896,0.778577778 30.6127111,7.01235556 31.2313778,14.9323556" id="Fill-83" fill="#FFFFFF"></path>
                    <path d="M0.543377778,16.1456889 C0.543377778,7.65857778 7.42337778,0.778577778 15.9113778,0.778577778 C23.9896,0.778577778 30.6127111,7.01235556 31.2313778,14.9323556" id="Stroke-85" stroke="#696969" stroke-width="2" stroke-linecap="round" stroke-linejoin="round"></path>
                </g>
                <g id="Group-90" transform="translate(0.000000, 111.545778)">
                    <path d="M5.05164444,0.781777778 L8.88888889e-05,0.781777778" id="Fill-87" fill="#FFFFFF"></path>
                    <path d="M5.05164444,0.781777778 L8.88888889e-05,0.781777778" id="Stroke-89" stroke="#696969" stroke-width="2" stroke-linecap="round" stroke-linejoin="round"></path>
                </g>
                <g id="Group-94" transform="translate(51.555556, 99.101333)">
                    <path d="M25.4696,13.2262222 C25.4696,12.9808889 25.4624889,12.7373333 25.4491556,12.4964444 C25.0704889,5.96488889 19.6544889,0.786222222 13.0296,0.786222222 C6.15848889,0.786222222 0.588711111,6.356 0.588711111,13.2262222" id="Fill-91" fill="#FFFFFF"></path>
                    <path d="M25.4696,13.2262222 C25.4696,12.9808889 25.4624889,12.7373333 25.4491556,12.4964444 C25.0704889,5.96488889 19.6544889,0.786222222 13.0296,0.786222222 C6.15848889,0.786222222 0.588711111,6.356 0.588711111,13.2262222" id="Stroke-93" stroke="#696969" stroke-width="2" stroke-linejoin="round"></path>
                </g>
                <g id="Group-98" transform="translate(10.666667, 111.545778)">
                    <path d="M41.4778667,0.781777778 L0.279644444,0.781777778" id="Fill-95" fill="#FFFFFF"></path>
                    <path d="M41.4778667,0.781777778 L0.279644444,0.781777778" id="Stroke-97" stroke="#696969" stroke-width="2" stroke-linecap="round" stroke-linejoin="round"></path>
                </g>
                <g id="Group-102" transform="translate(45.333333, 107.101333)">
                    <path d="M14.8606222,8.15333333 C14.8606222,4.11155556 11.5841778,0.835111111 7.54328889,0.835111111 C3.50151111,0.835111111 0.225066667,4.11155556 0.225066667,8.15333333" id="Fill-99" fill="#FFFFFF"></path>
                    <path d="M14.8606222,8.15333333 C14.8606222,4.11155556 11.5841778,0.835111111 7.54328889,0.835111111 C3.50151111,0.835111111 0.225066667,4.11155556 0.225066667,8.15333333" id="Stroke-101" stroke="#696969" stroke-width="2" stroke-linecap="round" stroke-linejoin="round"></path>
                </g>
                <g id="Group-106" transform="translate(73.777778, 107.990222)">
                    <path d="M0.320266667,4.86222222 C0.320266667,2.23555556 2.45004444,0.105777778 5.07671111,0.105777778 C7.70426667,0.105777778 9.83315556,2.23555556 9.83315556,4.86222222 L39.8136,4.86222222" id="Fill-103" fill="#FFFFFF"></path>
                    <path d="M0.320266667,4.86222222 C0.320266667,2.23555556 2.45004444,0.105777778 5.07671111,0.105777778 C7.70426667,0.105777778 9.83315556,2.23555556 9.83315556,4.86222222 L39.8136,4.86222222" id="Stroke-105" stroke="#696969" stroke-width="2" stroke-linecap="round" stroke-linejoin="round"></path>
                </g>
                <g id="Group-110" transform="translate(92.444444, 108.879111)">
                    <path d="M37.4687111,8.88888889 C37.4687111,4.03911111 33.5371556,0.107555556 28.6873778,0.107555556 C23.8376,0.107555556 19.9060444,4.03911111 19.9060444,8.88888889 L0.147822222,8.88888889" id="Fill-107" fill="#FFFFFF"></path>
                    <path d="M37.4687111,8.88888889 C37.4687111,4.03911111 33.5371556,0.107555556 28.6873778,0.107555556 C23.8376,0.107555556 19.9060444,4.03911111 19.9060444,8.88888889 L0.147822222,8.88888889" id="Stroke-109" stroke="#696969" stroke-width="2" stroke-linecap="round" stroke-linejoin="round"></path>
                </g>
                <g id="Group-114" transform="translate(80.888889, 116.879111)">
                    <path d="M6.2704,0.888888889 L0.105066667,0.888888889" id="Fill-111" fill="#FFFFFF"></path>
                    <path d="M6.2704,0.888888889 L0.105066667,0.888888889" id="Stroke-113" stroke="#696969" stroke-width="2" stroke-linecap="round" stroke-linejoin="round"></path>
                </g>
            </g>
        </g>
    </g>
</svg>